<svg width="24" height="24" viewBox="0 0 24 24" fill="none" xmlns="http://www.w3.org/2000/svg">
<g clip-path="url(#clip0_54_1009)">
<path d="M0.868176 18.0309C0.620569 18.4347 0.342486 18.9033 0.106307 19.2766C-0.105092 19.6338 0.00839518 20.0945 0.361533 20.3127L5.31368 23.3602C5.48751 23.4675 5.69717 23.5005 5.89557 23.4518C6.09397 23.4031 6.2645 23.2768 6.36887 23.1012C6.56696 22.7697 6.82219 22.3393 7.10027 21.8784C9.06208 18.6404 11.0353 19.0366 14.5933 20.7356L19.5035 23.0707C19.6895 23.1592 19.9034 23.1687 20.0964 23.0969C20.2895 23.0251 20.4452 22.8783 20.5282 22.6898L22.8862 17.3567C23.0528 16.9758 22.8833 16.5316 22.5053 16.3586C21.4691 15.871 19.4083 14.8996 17.5531 14.0044C10.8791 10.7627 5.20702 10.9722 0.868176 18.0309Z" fill="url(#paint0_linear_54_1009)"/>
<path d="M23.0733 5.92799C23.3209 5.5242 23.599 5.05565 23.8352 4.68234C24.0466 4.3251 23.9331 3.86438 23.5799 3.6462L18.6278 0.598719C18.4525 0.480683 18.2361 0.440727 18.0303 0.488396C17.8245 0.536066 17.6477 0.667079 17.5421 0.850136C17.344 1.18155 17.0888 1.612 16.8107 2.07294C14.8489 5.31088 12.8757 4.91471 9.31775 3.21574L4.42274 0.892038C4.23677 0.803523 4.02289 0.794071 3.82983 0.865837C3.63678 0.937604 3.48101 1.08447 3.39802 1.27297L1.04004 6.60606C0.873443 6.98695 1.04296 7.43108 1.42097 7.60411C2.45711 8.0917 4.51797 9.06309 6.37312 9.95828C13.0623 13.1962 18.7345 12.9791 23.0733 5.92799Z" fill="url(#paint1_linear_54_1009)"/>
</g>
<defs>
<linearGradient id="paint0_linear_54_1009" x1="2275.29" y1="1306.55" x2="1720.72" y2="34.3096" gradientUnits="userSpaceOnUse">
<stop offset="0.18" stop-color="#0052CC"/>
<stop offset="1" stop-color="#2684FF"/>
</linearGradient>
<linearGradient id="paint1_linear_54_1009" x1="22.235" y1="-144.241" x2="577.681" y2="1128.62" gradientUnits="userSpaceOnUse">
<stop offset="0.18" stop-color="#0052CC"/>
<stop offset="1" stop-color="#2684FF"/>
</linearGradient>
<clipPath id="clip0_54_1009">
<rect width="24" height="24" fill="white"/>
</clipPath>
</defs>
</svg>
