<svg width="24" height="24" viewBox="0 0 24 24" fill="none" xmlns="http://www.w3.org/2000/svg">
<path d="M19.3315 4H11.6267C11.6267 4.92244 11.9931 5.8071 12.6454 6.45936C13.2977 7.11163 14.1823 7.47807 15.1048 7.47807H16.5241V8.84835C16.5253 10.7675 18.0808 12.323 19.9999 12.3242V4.66843C19.9999 4.29927 19.7006 4 19.3315 4Z" fill="#2684FF"/>
<path d="M15.5192 7.83904H7.81445C7.81568 9.75818 9.37115 11.3136 11.2903 11.3149H12.7096V12.6896C12.7121 14.6088 14.2685 16.1632 16.1877 16.1632V8.50747C16.1877 8.1383 15.8884 7.83904 15.5192 7.83904Z" fill="url(#paint0_linear_102_9)"/>
<path d="M11.7048 11.6758H4C4 13.5967 5.55718 15.1539 7.47807 15.1539H8.90182V16.5242C8.90305 18.4416 10.4558 19.9963 12.3732 20V12.3442C12.3732 11.9751 12.0739 11.6758 11.7048 11.6758Z" fill="url(#paint1_linear_102_9)"/>
<defs>
<linearGradient id="paint0_linear_102_9" x1="14.3228" y1="6.22323" x2="11.0652" y2="9.62237" gradientUnits="userSpaceOnUse">
<stop offset="0.18" stop-color="#0052CC"/>
<stop offset="1" stop-color="#2684FF"/>
</linearGradient>
<linearGradient id="paint1_linear_102_9" x1="247.863" y1="229.888" x2="107.911" y2="368.392" gradientUnits="userSpaceOnUse">
<stop offset="0.18" stop-color="#0052CC"/>
<stop offset="1" stop-color="#2684FF"/>
</linearGradient>
</defs>
</svg>
