<svg width="64" height="64" viewBox="0 0 64 64" fill="none" xmlns="http://www.w3.org/2000/svg">
<path d="M31.7579 1.11719C30.0506 1.15696 28.1211 1.30425 26.3584 1.63672C26.1171 1.6782 25.3034 1.84496 25.4053 1.8457C26.8927 1.51905 28.7764 1.25723 30.2383 1.19629C30.2853 1.1941 30.1144 1.2227 30.2901 1.21582C30.6165 1.19822 31.6804 1.14186 31.8624 1.15332C31.8401 1.15633 31.2927 1.18675 31.4698 1.19922C31.709 1.21543 31.8582 1.20188 32 1.18457C32.1396 1.16771 32.2722 1.14691 32.4747 1.15039C32.793 1.13803 34.9015 1.30022 35.4258 1.35156C35.985 1.37532 33.8765 1.18697 34.0303 1.18848C35.4625 1.25654 36.912 1.48254 38.2383 1.75293C38.2599 1.75721 38.0626 1.6971 38.3594 1.75586C38.878 1.86117 39.0065 1.92118 39.2549 1.98438C39.5226 2.04878 40.4697 2.29939 40.5918 2.34863C40.6075 2.35434 40.41 2.32465 40.3809 2.31738C39.968 2.21281 39.8285 2.14444 39.7911 2.13379C39.65 2.0958 39.5095 2.07336 39.3809 2.04102C39.1691 1.98802 39.0543 1.94837 38.7725 1.88379C38.5784 1.83993 38.7608 1.90346 38.5733 1.86133C38.5092 1.84463 37.9161 1.68448 37.7354 1.68066C37.877 1.69368 38.3397 1.80873 38.9581 1.97852C38.5813 1.888 37.6882 1.70836 38.0889 1.80273C38.1491 1.8138 38.8101 1.95555 39.0079 1.99219C40.1895 2.31788 41.9076 2.83263 43.044 3.22461C41.9543 2.79288 40.9819 2.43613 40.7901 2.42285C40.6635 2.38333 40.7481 2.32595 41.2647 2.5166C41.3324 2.5415 41.0045 2.46047 41.0596 2.48242C41.0947 2.49003 42.2277 2.87369 42.2774 2.89551C42.3332 2.91307 42.2762 2.86754 42.3331 2.88477C42.3978 2.90276 43.0839 3.17675 43.4405 3.32227C44.1127 3.59407 44.1908 3.61354 44.2461 3.63574C44.4059 3.70467 44.6678 3.83451 44.9864 3.98242C46.6077 4.70462 48.946 6.09987 50.0459 6.97754C49.0415 6.23195 48.0234 5.60758 46.9336 5.00879C47.2769 5.13894 45.3037 4.18059 46.461 4.73438C46.2918 4.6045 45.5993 4.28582 44.752 3.9248C44.8814 3.98882 44.9627 4.03651 44.9766 4.06055C48.6086 5.75421 51.8996 8.16726 54.6124 11.1123C55.0882 11.6457 54.8042 11.3741 55.5762 12.2598C55.391 12.0187 55.2022 11.7796 55.0098 11.5439C55.4289 11.9804 57.0579 14.0981 57.2872 14.4658C57.3189 14.5117 57.3989 14.5521 57.7696 15.1064C58.0957 15.6015 58.1204 15.6993 58.2823 15.9717C58.4175 16.2006 58.575 16.4543 58.6133 16.5234C58.6425 16.5761 58.6404 16.6053 58.71 16.7324C58.9288 17.1368 58.7879 16.7892 58.962 17.2148C58.9067 17.1185 58.8512 17.0224 58.795 16.9268C59.0618 17.4142 59.3884 18.0943 58.9952 17.3818C58.9263 17.2598 58.9982 17.357 58.9483 17.2656C56.8543 13.7455 58.5528 16.5409 59.2276 17.8076C59.3946 18.1375 60.2733 20.0044 60.2813 20.0771C60.3115 20.1671 60.1578 19.8505 60.3204 20.2822C60.3819 20.362 61.3204 22.9547 60.959 22.0293C60.893 21.8353 60.4354 20.5956 60.3057 20.3057C60.5585 21.0107 61.1985 22.6458 61.2461 22.8408C61.4777 23.6024 60.7405 21.3951 61.2754 23.1074C61.6569 24.4307 61.3301 23.1795 61.4903 23.6846C61.5904 23.9683 61.918 25.4907 61.9493 25.4453C62.0664 25.9689 61.9756 25.6686 61.9874 25.7324C62.0029 25.7958 62.2144 26.8257 62.253 27.1689C62.2583 27.2102 62.2131 27.0853 62.2178 27.1279C62.2321 27.2126 62.3767 28.2137 62.3799 28.2559C62.3846 28.2792 62.377 28.0387 62.3946 28.1357C62.4193 28.2495 62.5171 29.2233 62.5245 29.2773C62.5459 29.353 62.4118 28.1511 62.4561 28.3486C62.5194 28.9065 62.6096 29.804 62.6485 30.1738C62.6386 30.0835 62.6003 29.5432 62.585 29.3564C62.6341 29.4412 62.7056 30.603 62.6524 30.207C62.6818 30.4591 62.6812 30.2863 62.7032 30.4277C62.7092 30.4644 62.7253 30.8207 62.7334 30.8906C62.7352 30.8761 62.7342 30.5334 62.7442 30.6035C62.7685 30.7354 62.7903 31.8254 62.7823 31.917C62.7744 32.1683 62.7558 31.2812 62.7354 31.2051C62.734 31.2279 62.7147 31.9513 62.71 31.9629C62.6844 32.0009 62.6935 31.166 62.668 31.2627C62.6675 31.47 62.6648 31.6777 62.6602 31.8857C62.6413 31.0835 62.5663 29.6096 62.4952 29.2334C62.6148 30.4118 62.6247 31.6493 62.5577 31.6494C62.531 31.6485 62.505 31.1515 62.4971 31.1592C62.4758 31.2342 62.5121 31.942 62.5088 31.9688C62.5073 31.9902 62.5054 32 62.504 32C62.4927 31.9863 62.4666 30.9909 62.4541 30.9424C62.4399 30.8597 62.4039 31.2948 62.3916 31.3057C62.3907 31.2835 62.3535 30.5794 62.3428 30.8193C62.3347 31.0612 62.3457 31.6803 62.3428 31.709C62.3361 31.8275 62.3011 30.7403 62.2881 30.7061C62.2852 30.6889 62.2825 31.2736 62.2754 31.291C62.2691 31.2771 62.2437 30.8559 62.2168 30.6885C62.1972 30.5603 62.2014 30.9368 62.1963 30.8721C62.1974 30.8258 62.1415 29.7987 62.1309 29.748C62.1217 29.6733 62.1222 29.9142 62.1153 29.8799C62.1062 29.8307 62.0863 29.5015 62.0831 29.543C62.0875 29.575 62.1026 30.8625 62.0801 30.8525C62.0568 30.8238 62.0479 29.4912 62.0049 30.7471C62.005 30.7558 62.0233 31.0617 62.0225 31.0703C62.0079 31.2588 61.9506 30.2804 61.9874 31.4795C61.8775 29.255 61.9422 31.201 61.8848 30.875C61.8662 30.751 61.8112 29.902 61.8047 29.8838C61.7889 29.9693 61.8235 30.2427 61.8174 30.3369C61.816 30.3846 61.7413 29.6197 61.7374 29.7939C61.7391 29.8856 61.7879 30.6989 61.7852 30.7334C61.7835 31.056 61.7517 30.6622 61.7442 30.7334C61.7404 30.782 61.7556 31.2649 61.754 31.2842C61.7502 31.2595 61.7037 30.6343 61.6856 30.502C61.6732 30.3973 61.6797 30.7919 61.6729 30.7188C61.6373 30.2777 61.6179 29.3294 61.6084 30.2441C61.6081 30.3018 61.6269 30.6437 61.626 30.6533C61.6161 30.8645 61.5858 30.2363 61.5606 30.1221C61.5214 29.9294 61.5895 30.8374 61.5254 30.082C61.5416 30.6528 61.5568 30.9609 61.5723 31.626C61.5107 29.7949 61.3788 29.1555 61.4786 31.1826C61.4593 30.5375 61.4168 30.6127 61.4073 30.4199C61.4042 30.2979 61.3758 29.3636 61.3165 29.7979C61.3107 29.8544 61.3593 30.4171 61.3252 30.2422C61.2366 28.8828 61.3116 30.2137 61.3057 30.2158C61.2923 30.1962 60.9664 26.8942 60.7989 26.3418C60.666 25.6947 60.4857 25.1323 60.4512 24.9932C60.3372 24.5361 60.4523 24.909 60.4346 24.8057C60.4237 24.6978 60.0196 23.4124 59.9952 23.3516C59.9269 23.1013 60.0289 23.3444 60.0225 23.3193C59.9552 23.0005 59.3339 21.3041 59.1319 20.8398C59.1301 20.8696 59.4939 21.8003 59.2393 21.2236C58.9366 20.5519 58.9798 20.4877 58.9766 20.4678C57.6455 17.3572 55.7673 14.4819 53.459 12.0078C53.4752 12.0531 54.939 13.7071 54.9512 13.7627C55.0466 13.8697 54.509 13.2579 53.8916 12.5693C53.9287 12.6315 53.9633 12.7674 53.5801 12.2998C53.5041 12.2098 53.8331 12.5329 53.2969 11.9424C53.4733 12.1324 53.5631 12.2169 53.627 12.2764C53.0548 11.6422 52.4813 11.0184 52.3184 10.8926C52.5632 11.1399 52.8035 11.3919 53.0391 11.6475C52.5993 11.2482 51.6919 10.2964 51.0215 9.75781C50.8127 9.58744 51.1797 9.92269 51.1905 9.93555C50.945 9.74352 50.5698 9.41445 50.8711 9.63672C50.2728 9.1667 50.3729 9.21959 49.9151 8.85742C49.8912 8.83922 50.0787 9.00572 49.7081 8.73047C49.5375 8.59704 48.6027 7.92459 48.462 7.85449C48.4068 7.82351 48.8454 8.21308 48.9385 8.20801C49.933 8.96917 49.2793 8.42063 49.669 8.71289C49.7249 8.76114 49.5821 8.67016 50.543 9.42676C50.3297 9.31779 49.2424 8.42402 49.0352 8.29492C48.6273 8.00941 50.2585 9.2553 50.5665 9.47461C50.4001 9.39963 50.6763 9.56985 51.0225 9.87012C51.3996 10.2001 51.2259 10.0673 51.4288 10.2471C51.9775 10.7448 51.7742 10.5132 52.1973 10.9551C51.8328 10.474 52.9612 11.6736 53.2608 12.0479C52.7245 11.4835 52.1662 10.9406 51.587 10.4209C51.6166 10.4544 51.6464 10.4879 51.6758 10.5215C51.5254 10.3826 51.3731 10.246 51.2198 10.1104C51.2474 10.1284 51.2752 10.1469 51.3028 10.165C50.4891 9.4926 50.2997 9.31584 50.2344 9.25879C49.3731 8.55897 48.326 7.81595 47.3721 7.22559C47.2266 7.14048 47.3192 7.21056 46.2676 6.58008C45.9294 6.38296 46.2643 6.54103 45.8731 6.33105C45.3545 6.12559 45.3859 6.08785 45.2393 6.01172C44.8176 5.79677 44.5478 5.68872 44.5088 5.66992C43.9818 5.4195 43.1968 5.07377 42.5977 4.84473C42.5865 4.84058 42.8897 4.9812 42.504 4.82422C42.37 4.76712 41.1661 4.22116 40.0499 3.9375C40.2218 3.99029 40.3912 4.04771 40.5616 4.10352C39.8214 3.88719 38.2892 3.51266 38.7637 3.65527C39.1181 3.74932 40.0032 3.93412 40.0831 4.01465C39.4326 3.72652 36.0872 3.14651 34.8956 3.00879C35.0639 3.02682 35.2958 3.04232 35.2178 3.02148C35.9622 3.10978 36.7382 3.20914 36.4063 3.15332C36.3207 3.11155 33.9499 2.84577 34.087 2.91016C34.1596 2.90239 34.5424 2.94327 34.9815 2.99414C34.8871 2.98975 34.8222 2.99337 34.8038 2.99707C34.6484 2.98066 34.5407 2.97416 34.4961 2.97949C34.4499 2.97349 34.7472 2.98262 34.6807 2.97461C34.6274 2.96377 33.5964 2.89324 33.4571 2.88477C33.375 2.87627 33.8315 2.89027 33.7979 2.88281C33.7632 2.86958 32.4761 2.81376 32.3965 2.84082C32.717 2.83287 33.6061 2.87806 33.1387 2.87695C33.0787 2.87644 32.7669 2.85293 32.6934 2.85449C32.0149 2.85979 34.0423 2.91571 34.3555 2.95996C33.6994 2.92088 32.8666 2.87782 32 2.87598C31.1799 2.873 30.35 2.90678 29.6329 2.97363C29.0365 3.00261 30.5132 2.88112 29.8379 2.91602C29.4978 2.93739 29.3014 2.9516 29.1983 2.96094C29.5396 2.92501 29.7761 2.89809 29.4961 2.91309C29.4267 2.90288 27.6171 3.11907 28.2442 3.06445C28.3383 3.04948 28.797 3.00374 29.1592 2.96582C28.9312 2.98941 29.4562 2.97276 29.4258 2.97656C29.0848 3.01703 27.8897 3.06853 27.9014 3.14551C27.3997 3.20834 27.5576 3.17089 26.8526 3.30176C26.9462 3.2902 27.04 3.27922 27.1338 3.26855C26.3555 3.42673 24.6926 3.7135 24.8145 3.68164C25.1364 3.57369 26.0014 3.41694 26.0782 3.40332C26.1873 3.38394 26.4699 3.2304 27.6856 3.11035C28.1706 2.97422 25.777 3.4003 26.8594 3.17578C26.1167 3.26632 23.1319 4.01622 22.7295 4.2168C22.6815 4.23737 22.9267 4.20129 22.2041 4.42676C21.8609 4.53545 22.6783 4.24655 22.5196 4.29102C22.1406 4.25764 19.2687 5.60965 17.1104 6.80371C16.7216 7.05584 15.8676 7.60732 15.8301 7.64062C15.5525 7.79878 16.2409 7.32875 16.7852 6.98535C15.8458 7.5163 15.0855 7.99875 14.8018 8.29004C14.7333 8.33993 14.7498 8.31007 14.6827 8.35938C14.4737 8.50892 13.7433 9.09748 13.3868 9.3877C14.1412 8.80701 12.7105 9.97701 12.3692 10.3027C11.8389 10.7812 11.8554 10.7361 11.628 10.9453C10.7459 11.7495 9.57121 13.1749 8.96196 13.8711C9.02963 13.868 7.96276 15.1233 7.55669 15.7578C7.22819 16.2467 6.81602 16.9965 7.2559 16.3359C6.7089 17.191 6.19575 18.1288 5.77641 18.9824C5.70726 19.1235 5.78765 18.922 5.67094 19.1631C5.66068 19.1851 5.65999 19.2235 5.56254 19.4316C4.78517 21.1658 5.14307 20.3146 4.98735 20.6348C4.90481 20.8153 4.84695 20.9502 4.80571 21.0498C5.2116 20.0168 5.77463 18.8654 5.93462 18.5625C5.74866 18.7968 4.87651 20.7871 4.65922 21.3828C4.65123 21.4014 4.6596 21.3241 4.65141 21.3447L4.65044 21.3457C4.55162 21.5646 4.06245 22.9974 4.1895 22.7129C4.22275 22.6352 4.44104 21.974 4.74516 21.2031C4.66759 21.4126 4.74943 21.2666 4.73637 21.3027C4.56581 21.7513 4.15815 22.8487 4.03618 23.249C4.00716 23.3398 4.02415 23.3376 4.01958 23.3525C3.90645 23.7124 3.90923 23.5521 3.8438 23.9365C3.59893 24.5792 4.20187 22.7046 4.13872 22.8291C4.00162 22.9076 2.98479 27.1598 3.10161 27.1748C3.09461 27.1898 3.0792 27.2483 3.05376 27.3682C2.98987 27.6356 2.84073 28.8452 2.83403 29.0576C2.83214 29.0927 2.87371 29.0829 2.87016 29.126C2.85262 29.2316 2.71038 30.7196 2.73247 31.2744C2.74552 30.974 2.76308 30.6769 2.7852 30.377C2.71101 32.1835 2.75878 31.9081 2.77446 31.3027C2.77529 31.2727 2.77745 31.2435 2.77837 31.2148C2.79808 30.7484 2.8423 30.1511 2.84672 30.1416C2.85208 30.1373 2.7952 31.2455 2.79594 32C2.79274 32.4893 2.79609 32.8208 2.77544 32.5898C2.77232 32.5538 2.76956 32.2603 2.77055 32C2.77169 31.6662 2.77469 31.3899 2.75493 31.7861C2.75353 31.8168 2.75297 31.8968 2.75297 32C2.75161 32.313 2.76805 32.8382 2.76762 32.874C2.76205 33.0574 2.72831 32.4834 2.71489 32C2.70371 31.6398 2.69996 31.3353 2.68559 31.4395C2.69187 31.6118 2.69435 31.8015 2.69633 32C2.69981 32.3614 2.7019 32.7489 2.71977 33.1064C2.7325 33.3571 2.75692 33.4181 2.75883 33.4492C2.78867 33.9153 2.75431 33.6557 2.76372 33.8115C2.76591 33.8992 2.88465 34.8059 2.80864 34.6387C3.21376 37.6408 2.88633 35.4692 2.77837 33.6182C2.82771 34.2058 2.92475 35.347 3.00297 35.8584C3.02953 36.0412 3.03494 35.9307 3.08305 36.2383C3.14225 36.8821 3.77985 39.883 4.05376 40.6367C3.90444 40.1702 3.9229 40.3135 4.0352 40.6748C4.15027 41.0368 4.08412 40.7233 4.10942 40.793C4.12461 40.8726 4.69752 42.5541 4.82524 42.8232C4.33557 41.5764 4.41603 41.8688 4.82817 42.9297C4.76069 42.7797 4.69401 42.629 4.62895 42.4775C4.86708 43.1003 5.4056 44.3983 5.58989 44.7373C5.61684 44.7892 5.54012 44.5871 5.55571 44.6172C5.7028 44.9216 6.21472 45.9454 6.25297 45.9922C6.27864 46.0296 6.06165 45.5906 6.15434 45.7471C6.17332 45.7795 6.37319 46.21 6.61235 46.6104C6.70082 46.7586 6.66504 46.6597 6.68754 46.6963C6.87939 47.0042 6.74009 46.8378 7.09087 47.4014C7.3514 47.8123 7.57121 48.1001 7.94438 48.6582C6.75702 46.8029 7.74696 48.3672 8.30083 49.1035C8.39072 49.2207 8.33474 49.1048 8.85551 49.8154C7.68314 48.3501 9.14217 50.2706 9.4727 50.6377C9.48973 50.6585 9.47875 50.6805 9.63383 50.8652C9.64717 50.8808 9.63929 50.8493 9.78618 51.0195C11.2095 52.6077 10.2933 51.5982 10.5528 51.9102C10.6629 52.0446 11.4004 52.7742 11.6045 52.9648C11.6507 53.0094 11.6183 53.0006 11.7979 53.1719C12.1169 53.475 12.4205 53.7278 12.6387 53.9189C12.6647 53.9406 12.6471 53.9629 13.0704 54.3145C13.1898 54.413 13.329 54.5176 13.1651 54.3711C12.6183 53.8899 11.5769 52.9796 11.0245 52.3672C10.5105 51.8205 12.1809 53.4965 12.2881 53.5625C12.3186 53.5907 11.9736 53.2904 12.3165 53.6084C12.6106 53.8812 13.1903 54.332 13.6495 54.7129C13.6848 54.7438 14.0356 55.0662 14.0176 55.0537C13.9963 55.0417 13.424 54.5918 13.5 54.665C13.5086 54.6747 13.8723 54.9669 13.9161 55.0098C13.9687 55.0632 14.0722 55.2587 14.1504 55.3213C14.3509 55.4813 14.2309 55.3636 14.3623 55.4648C14.6398 55.6872 15.6375 56.4158 15.6915 56.4072C15.5233 56.2924 15.3553 56.176 15.1895 56.0576C16.1259 56.697 15.7378 56.4084 15.8731 56.4941C16.0212 56.5834 15.9645 56.582 16.2852 56.79C16.3532 56.8466 17.7189 57.6495 17.7129 57.6221C16.9369 57.2026 17.2371 57.3304 17.2032 57.3115C17.0708 57.2314 16.8911 57.147 16.7139 57.0381C15.4773 56.2588 16.741 57.0177 16.4532 56.8271C16.3541 56.7622 16.1468 56.6496 16.1045 56.6211C15.9689 56.5299 15.9785 56.5096 15.8868 56.4512C15.6726 56.314 15.9023 56.504 15.8848 56.4941C15.6823 56.3874 14.9635 55.8589 15.4385 56.1475C15.1715 55.9486 15.1165 55.9587 14.9112 55.792C14.505 55.4582 15.136 55.9268 15.3155 56.042C15.9567 56.4575 16.1326 56.6017 17.0606 57.1562C17.3954 57.3543 17.8077 57.5621 17.9668 57.6475C18.0639 57.7059 18.9865 58.2611 19.0645 58.1758C19.4331 58.3714 19.9955 58.7098 20.3936 58.877C20.75 59.0267 20.6522 58.9433 20.6856 58.9561C20.7368 58.9761 21.1671 59.1553 21.3165 59.207C21.4908 59.2683 21.4098 59.2226 21.6856 59.3213C22.374 59.5621 22.3455 59.5847 22.4151 59.6133C23.2307 59.9205 22.8877 59.745 23.0723 59.8018C23.2174 59.8684 25.0782 60.3913 25.9053 60.5654C25.7888 60.545 25.6717 60.5267 25.5557 60.5049C25.9267 60.6134 26.3346 60.6541 26.336 60.6973C26.4252 60.6467 27.2012 60.8348 27.4405 60.8672C27.5338 60.8809 27.5287 60.8689 27.6446 60.8857C28.0971 60.9568 29.1365 61.0823 29.3838 61.0938C30.4623 61.1695 27.7129 60.8615 27.5059 60.7939C27.9305 60.8881 30.384 61.1001 29.2627 60.9629C29.0907 60.9421 28.7777 60.94 28.6797 60.9297C28.0179 60.859 28.5409 60.8935 28.4893 60.8848C28.4015 60.8708 27.9649 60.8406 27.8516 60.8203C27.8141 60.813 28.0616 60.8273 27.4366 60.7314C27.7443 60.7702 29.5117 60.9921 29.7452 60.9902C29.8262 60.9889 29.3133 60.9216 30.8282 61.0498C30.8109 61.0443 30.7937 61.0387 30.7764 61.0332C31.1822 61.049 31.5901 61.0566 32 61.0557C32.4426 61.0546 32.8828 61.044 33.3204 61.0234C33.2291 61.0389 32.7563 61.0798 33.3526 61.0508C33.6944 61.0314 33.4432 61.0189 33.4717 61.0166C33.7956 61.1153 39.2222 60.321 40.21 59.876C40.5563 59.7787 41.5072 59.443 41.5772 59.4141C42.0126 59.2736 43.5237 58.6803 43.8155 58.5342C43.9992 58.4498 43.8163 58.5097 43.9805 58.4365C44.1337 58.3678 43.9846 58.4584 44.0303 58.4385C44.4292 58.3115 47.1838 56.8038 47.795 56.3721C47.4234 56.6371 45.464 57.7958 45.502 57.7705C45.5122 57.7687 46.0062 57.5207 46.1026 57.457C46.2773 57.3818 46.8128 57.0138 47.1172 56.8379C47.1513 56.8172 47.0352 56.9279 47.5713 56.5977C47.756 56.4832 48.2188 56.1565 48.7012 55.8486C49.4263 55.4352 52.7282 52.5926 52.8604 52.2998C52.8601 52.2991 52.4295 52.7186 52.709 52.418C53.0801 52.0122 52.7797 52.4085 53.2256 51.9473C53.3035 51.8853 54.4757 50.5413 54.5 50.4854C54.8155 50.0558 53.8381 51.2053 53.8165 51.2119C53.8505 51.1693 54.6771 50.1748 54.7061 50.1309C54.7377 50.096 54.1136 50.9416 54.8926 49.9434C54.7988 50.0544 54.7038 50.1649 54.6084 50.2744C54.9738 49.8037 55.029 49.7741 55.1192 49.6611C55.3967 49.3067 55.6486 48.8915 56.1006 48.3281C56.2199 48.1788 56.0563 48.4502 56.0713 48.4316C56.2177 48.2535 56.335 47.9818 56.5547 47.7139C56.5431 47.7368 56.19 48.3455 56.9102 47.1973C56.8565 47.2776 56.8015 47.3577 56.7471 47.4375C56.853 47.2689 57.5623 46.042 57.6475 45.8701C57.9152 45.3821 57.7136 45.8248 57.9698 45.3262C57.7785 45.6315 58.5273 44.1036 58.5069 44.2002C58.5767 43.9695 59.1761 42.6537 59.4014 42.0088C59.5525 41.6085 59.8076 40.7705 59.8477 40.6387C59.8988 40.4811 59.9118 40.5374 60.003 40.252C60.0299 40.1712 60.2591 39.3045 60.459 38.5469C60.4988 38.4 60.6137 38.0972 60.5645 38.377C60.4832 38.857 60.2124 39.7335 60.2403 39.7295C60.2805 39.7146 60.5644 38.5223 60.6309 38.1953C60.9516 36.701 60.8084 37.5569 60.8262 37.5312C60.8716 37.436 61.0139 36.6038 61.0186 36.5684C61.0512 36.4257 60.9744 37.0191 60.9854 37.0312C61.0044 37.0462 61.1655 36.2451 61.1426 36.4287C61.1147 36.6936 60.9566 37.4278 60.9473 37.4736C60.8485 38.0823 61.0525 37.261 61.1104 37.0322C61.129 36.9636 61.0916 37.2442 61.1036 37.1865C61.2821 36.3041 61.0774 36.9893 61.1758 36.4004C61.255 35.8933 61.1926 36.5128 61.1915 36.5361C61.1993 36.5065 61.2897 35.8836 61.3106 35.7842C61.3323 35.7365 61.1338 37.3767 61.1592 37.3193C61.2485 36.7963 61.324 36.2708 61.3848 35.7451C61.4237 35.7097 61.2975 36.4586 61.2862 36.5371C61.2689 36.6951 61.3508 36.261 61.3575 36.2812C61.3621 36.3003 61.3093 36.8041 61.3877 36.3457C61.4138 36.1863 61.4426 35.8496 61.5303 35.2656C61.3031 37.3033 61.5006 35.898 61.5215 35.8389C61.5407 35.7813 61.4401 36.7573 61.5879 35.5752C61.6555 35.5316 61.6061 35.6047 61.5733 35.9414C61.5275 36.3537 61.6933 35.4078 61.4483 36.9062C61.498 36.8237 61.666 35.6177 61.67 35.5518C61.6787 35.4984 61.6603 35.7683 61.6768 35.6729C61.8625 34.5373 61.7489 35.3177 61.8204 34.9912C61.8305 34.9552 61.9328 33.887 61.8692 34.707C61.7371 36.2107 61.5681 36.8199 61.6182 37.0869C61.8516 35.9917 61.9203 34.6346 61.9405 34.2979C61.9763 33.7793 61.9564 34.3174 61.9659 34.2539C61.9701 34.2289 61.998 33.7861 61.9991 33.7783C62.0986 33.465 61.853 35.7708 61.7305 36.4863C61.7694 36.2954 61.8066 36.1036 61.8418 35.9111C61.8081 36.1744 61.7713 36.4354 61.7305 36.6982C61.9331 35.4542 61.7508 36.6519 61.7491 36.9756C61.75 37.0479 61.8641 36.2216 61.7432 37.166C61.8658 36.4751 61.8419 36.6968 61.9151 36.0684C61.9408 36.0904 61.7496 37.5068 61.6387 38.0566C62.0232 36.1037 61.7589 37.2082 62.0303 35.5098C62.0404 35.1904 61.9493 36.0055 61.9512 35.9395C61.9661 35.7005 62.0622 35.1392 62.0596 34.4609C62.0585 34.3507 61.9948 34.8132 62.0479 34.125C62.0542 34.0504 62.103 33.6251 62.1055 33.6152C62.1223 33.6756 62.0878 34.1116 62.0938 34.1299C62.1011 34.1416 62.126 33.6752 62.128 33.6582C62.1535 33.6447 62.1131 34.0648 62.1241 34.0039C62.1502 33.8691 62.3023 32.1253 62.1485 34.4102C62.2402 32.5051 62.1538 34.1696 62.0889 34.9033C62.0734 35.0902 62.0833 35.1404 62.0586 35.4092C62.0269 35.7548 61.9666 36.1547 61.9434 36.332C61.9163 36.5233 62.1163 35.4449 61.8653 37.0107C62.039 36.2202 62.1656 34.7987 62.2334 34.0088C62.3748 32.4095 62.2276 35.1275 62.1729 35.4082C62.1659 35.4835 62.2121 35.2348 62.2081 35.2832C62.2103 35.3691 61.9945 36.8956 61.9747 37.0498C61.9666 37.2028 62.0649 36.4879 62.086 36.4443C62.1128 36.4183 61.8103 38.2596 61.9942 37.2656C62.1277 36.5763 62.2368 35.3012 62.3018 35.0869C62.2028 36.1107 62.0525 37.1262 61.8516 38.1299C61.9816 37.586 62.0972 37.0331 62.1973 36.4795C62.0332 37.6236 61.8119 38.5981 61.5655 39.6641C62.2385 37.1199 61.4214 40.503 61.3819 40.542C61.3943 40.5306 61.7077 39.563 61.751 39.4043C61.5797 40.3144 60.6876 42.9766 61.2627 41.4365C61.1615 41.716 60.9562 42.3995 60.9571 42.4014C61.0222 42.3285 61.4956 40.8192 61.4356 41.0713C61.3741 41.3647 61.2104 41.7534 61.0616 42.1865C60.2484 44.3956 60.627 43.8593 59.5801 45.9873C59.6058 45.9476 59.6318 45.908 59.6573 45.8682C58.4924 48.1701 57.0373 50.3225 55.3409 52.2627C54.7328 53.0699 52.8454 54.9935 51.8057 55.8125C51.6055 55.9881 50.5627 56.7748 50.4776 56.8252C50.3293 56.9296 51.1243 56.3213 50.7559 56.585C50.6978 56.6461 49.5005 57.4864 49.1221 57.7578C47.7425 58.6064 45.2296 60.0717 44.6495 60.2773C44.3621 60.4031 44.073 60.5262 43.7832 60.6426C43.9412 60.5704 44.0986 60.497 44.2559 60.4219C43.8007 60.6151 43.1876 60.8658 42.754 61.0186C42.6832 61.0436 42.8588 60.9579 42.6924 61.0186C42.5254 61.0788 42.5662 61.0915 42.3243 61.1807C42.0547 61.2869 40.7874 61.6761 40.3438 61.792C38.6923 62.2559 36.9853 62.5969 35.2735 62.7656C37.0371 62.5355 35.2555 62.7407 34.7637 62.7842C34.6548 62.7869 34.6761 62.8748 32.8975 62.9316C32.1281 62.9439 32.3632 62.9023 32 62.8945C31.8287 62.889 31.5233 62.8915 30.92 62.8828C32.3689 62.9605 30.9433 62.9538 29.8047 62.8721C29.6071 62.8672 28.0279 62.7089 27.3399 62.5947C27.1027 62.56 26.7366 62.5263 26.4239 62.4697C26.2084 62.4307 26.0484 62.3865 25.7305 62.3223C24.2442 62.0193 22.8064 61.6131 21.3829 61.0889C22.2357 61.3276 20.7416 60.8257 20.6758 60.7871C20.3438 60.6437 21.8751 61.2156 21.2735 60.9785C20.4256 60.6667 19.5931 60.3181 18.7774 59.9336C19.443 60.2586 17.8674 59.5626 17.6016 59.3838C17.6627 59.5511 14.0764 57.259 13.5928 56.8232C13.4871 56.7396 14.1567 57.3171 12.5538 56.042C12.3828 55.9012 12.4588 55.9404 12.3682 55.8682C12.314 55.8249 11.9526 55.598 11.6348 55.2783C11.5264 55.1554 12.3086 55.8496 10.6114 54.2959C11.1537 54.931 8.84794 52.5702 8.10649 51.6377C8.13765 51.6797 8.16883 51.7218 8.20024 51.7637C7.74 51.1737 7.64681 51.0753 7.54301 50.9424C7.12747 50.4038 6.6 49.6334 6.25004 49.1064C5.84289 48.4893 5.8085 48.5063 5.37504 47.7598C5.47277 47.9398 5.57228 48.1193 5.67387 48.2979C5.36062 47.7893 5.06291 47.2724 4.77934 46.7461C5.49084 47.9317 4.63414 46.4882 4.58794 46.3857C4.50463 46.2302 4.63819 46.4461 4.50005 46.1855C4.48618 46.1583 4.48856 46.2068 4.28227 45.8008C3.85935 44.9482 3.9516 45.0719 3.78422 44.71C3.77017 44.676 3.80343 44.8016 3.52544 44.1699C2.68577 42.1477 3.53123 44.1757 3.57622 44.251C3.6289 44.3477 3.36629 43.6467 4.12407 45.3418C3.86341 44.7757 3.86897 44.7034 3.83989 44.6396C3.81016 44.5835 3.38301 43.5924 3.3643 43.5361C3.15843 43.0471 3.3122 43.4883 3.27055 43.3936C3.22992 43.3165 2.80198 42.0881 2.65434 41.8154C2.51644 41.205 2.80032 42.1449 3.18657 43.1162C3.24861 43.2554 2.85922 42.1763 2.84477 42.1182C2.37601 40.7164 2.593 41.5056 2.46391 41.207C2.39748 41.0499 2.25666 40.4623 2.37602 41.0078C1.99455 39.7189 2.2474 40.4928 2.22563 40.4102C2.19417 40.283 2.06048 39.8309 2.0479 39.7725C2.0286 39.6881 2.11787 39.9752 2.03813 39.6445C2.02484 39.5899 1.86717 39.0635 2.02837 39.752C1.80158 38.8353 1.80761 38.9119 1.77837 38.5898C1.5633 37.9665 1.72891 38.1168 1.68364 37.8652C1.57052 37.1965 1.54557 37.3972 1.5352 37.3643C1.45826 37.1237 1.22279 35.2478 1.18852 34.7822C1.24318 34.9595 1.3491 36.2726 1.40825 36.5586C1.57703 37.5206 1.24341 35.1923 1.39751 35.8877C1.34476 35.5953 1.2962 35.2981 1.252 35.0049C1.24317 34.4588 1.30912 35.2307 1.19633 33.7666C1.1466 33.5291 1.27239 34.8019 1.23051 34.5479C1.2005 34.4008 1.1453 33.5587 1.13872 33.5312C1.12629 33.5141 1.18414 34.2834 1.16313 34.1641C1.08904 33.8974 1.05685 31.0944 1.12797 33.2285C1.10819 32.7118 1.15073 32.4106 1.14946 32C1.14938 31.9384 1.14863 31.8742 1.14653 31.8066C1.14275 31.6819 1.12626 31.8666 1.1104 32C1.09681 32.1142 1.08221 32.1903 1.07231 32C1.06454 31.8183 1.05449 31.3908 1.0977 30.5312C1.12487 30.4717 1.06909 31.6524 1.07622 31.6895C1.07893 31.7329 1.14733 31.5184 1.15141 31.4814C1.13378 31.3491 1.2771 28.4761 1.42876 27.8779C1.34115 28.1095 1.75903 25.7299 1.82817 25.4746C1.83969 25.4052 1.76221 25.657 1.77544 25.583C1.85189 25.1186 2.19515 23.9016 2.36723 23.3408C2.55401 22.7149 2.5158 22.7877 2.52544 22.7529C2.61377 22.4772 2.55756 22.7017 2.61137 22.5332C2.67922 22.2736 3.3125 20.5544 3.35649 20.4727C3.36581 20.4473 3.23233 20.7159 3.37797 20.3438C3.40705 20.281 3.39932 20.3247 3.87016 19.2393C4.45386 17.9389 3.42981 20.1271 3.65044 19.5771C4.06113 18.7556 4.02014 18.7708 4.12895 18.5469C4.16756 18.4694 4.47797 17.9067 4.80766 17.2959C4.57516 17.7367 4.35295 18.1841 4.14165 18.6367C4.35658 18.1945 4.79018 17.3477 4.99614 16.999C5.09514 16.8296 5.03952 16.9835 5.25102 16.6123C5.29833 16.5349 5.40924 16.1825 4.88872 17.1777C4.82427 17.2434 5.09598 16.7833 5.21489 16.5664C5.23288 16.5331 5.27128 16.3838 5.45512 16.126C5.50653 16.0708 5.15175 16.8169 6.22465 14.9785C6.26007 14.9198 6.11657 15.1098 6.15044 15.0527C6.17287 15.0126 6.48124 14.5639 6.51469 14.5137C6.54738 14.4618 6.38579 14.6689 6.42387 14.6074C6.62246 14.2873 6.95882 13.9213 6.51274 14.5537C6.66569 14.3449 6.82165 14.1382 6.97954 13.9336C6.77805 14.1292 7.20457 13.5958 7.42192 13.3115C8.83486 11.5064 7.85982 12.6915 8.09184 12.3721C8.47871 11.8677 8.22604 12.2885 8.82426 11.5615C8.77776 11.608 8.31487 12.0711 9.23735 11.0801C9.13701 11.1901 9.03722 11.3007 8.93852 11.4121C9.0963 11.2998 9.73906 10.5384 9.79497 10.4854C10.4049 9.86041 9.99159 10.2823 10.9141 9.37012C10.9974 9.28939 11.1905 9.12644 11.3711 8.95703C12.1184 8.2525 10.3585 9.85569 10.3116 9.9043C10.2664 9.90171 12.1681 8.17973 12.2559 8.14648C12.5525 7.91965 11.3752 8.9052 11.6153 8.73535C11.6547 8.66453 13.0134 7.58132 14.0752 6.7959C13.7603 7.02239 13.4023 7.28138 13.0049 7.56738C12.9899 7.55674 12.9844 7.56695 13.2041 7.39648C15.993 5.4176 16.1412 5.31085 14.668 6.37012C14.8945 6.21211 15.0783 6.08969 15.1944 6.0293C15.9107 5.58042 16.2744 5.44901 16.2422 5.38281C16.483 5.32207 16.641 5.17529 16.7354 5.12207C17.8809 4.49274 17.8863 4.49825 18.8926 4.00586C19.1158 3.89951 19.3153 3.83297 19.3936 3.79395C19.4388 3.77142 19.3431 3.78893 19.5684 3.68164C19.876 3.51468 21.8287 2.7883 21.9844 2.7666C22.1334 2.72566 21.1595 3.06486 21.3409 3.02344C21.9996 2.78339 22.6437 2.56622 23.3184 2.37012C22.5544 2.59275 21.8624 2.80039 22.3047 2.65234C22.464 2.59271 23.0466 2.44685 22.9434 2.43652C25.7977 1.57191 28.7778 1.12982 31.7579 1.11719ZM40.5987 61.7139C40.7989 61.6383 39.2542 62.0463 39.6661 61.957C39.7581 61.9401 40.4069 61.7713 40.5987 61.7139ZM42.4209 61.166C42.1713 61.2867 40.994 61.6352 41.1973 61.5586C41.2481 61.5483 42.5138 61.126 42.4209 61.166ZM21.8829 61.2529C22.0507 61.3132 22.7971 61.5625 22.8165 61.5586C22.834 61.5545 21.9759 61.2669 21.8829 61.2529ZM27.9229 61.0781C27.9499 61.0908 27.6554 61.0727 27.71 61.083C27.8671 61.1267 29.5425 61.3013 29.2881 61.2471C29.1973 61.2348 28.2341 61.1477 28.1915 61.1367C28.1254 61.1254 28.4329 61.1418 27.9229 61.0781ZM30.0547 61.0205C29.862 61.0404 30.7831 61.0678 30.959 61.0771C31.0136 61.0802 30.1682 61.1223 31.3956 61.1084C30.741 61.0838 31.4319 61.094 31.4219 61.0869C31.3914 61.0738 30.2996 61.0499 30.0547 61.0205ZM31.4649 61.0635C31.444 61.0644 31.6158 61.0955 31.6514 61.0957C32.192 61.097 31.8 61.0504 31.4649 61.0635ZM27.8643 61.0117C27.7258 61.003 28.1161 61.0754 28.2872 61.0908C28.3326 61.0952 28.0445 61.0237 27.8643 61.0117ZM28.545 60.9639C28.9812 60.9956 28.8844 61.0453 28.5098 60.9814C28.4961 60.9787 28.528 60.9626 28.545 60.9639ZM26.9385 60.8691C26.6256 60.8264 27.3357 60.9898 27.669 61.0078C27.838 61.0201 26.9917 60.8796 26.9385 60.8691ZM26.6143 60.8691C26.4464 60.838 26.2587 60.8242 26.3389 60.8447C26.9044 60.986 27.045 60.9465 26.6143 60.8691ZM36.3604 60.7529C36.0682 60.7838 35.5387 60.8671 35.7374 60.8516C35.7819 60.8496 36.3725 60.7633 36.3604 60.7529ZM25.669 60.6523C25.5114 60.6372 25.7761 60.6942 25.8692 60.7207C26.4351 60.8809 26.1736 60.7759 25.669 60.6523ZM27.3194 60.7012C27.5485 60.7592 26.8557 60.6362 26.8418 60.6328C26.8217 60.6299 27.0255 60.7047 26.7862 60.6641C27.0461 60.7104 27.3536 60.7649 27.3692 60.7715C27.3966 60.7917 26.5229 60.6521 26.4698 60.6064C26.5175 60.6169 26.6004 60.6301 26.6963 60.6475C26.5887 60.6261 26.4289 60.5925 26.1963 60.5371C26.0438 60.5001 26.5952 60.5906 26.544 60.5771C26.4299 60.5505 26.3393 60.5306 26.2666 60.5156C26.756 60.6086 27.2703 60.6892 27.3194 60.7012ZM25.3633 60.4932C25.3954 60.5213 26.1453 60.661 25.9883 60.6182C25.8867 60.593 25.3447 60.4786 25.3633 60.4932ZM23.6514 60.1699C23.592 60.1641 23.8499 60.2355 24.0264 60.29L24.0254 60.2891C24.2254 60.3524 24.7648 60.5049 25.1426 60.5732C24.6442 60.4523 24.1435 60.3174 23.6514 60.1699ZM25.6729 60.4238C24.9512 60.2474 25.484 60.3648 26.1338 60.4902C25.9269 60.4549 25.9162 60.4805 25.6729 60.4238ZM24.0635 60.043C24.2744 60.0866 24.9585 60.2751 25.2588 60.3506C25.0433 60.3232 24.4005 60.1437 24.0635 60.043ZM22.5313 59.6875C22.6102 59.7467 25.0155 60.4548 23.6543 60.0352C23.5739 60.0186 22.2717 59.5808 22.5313 59.6875ZM22.5889 59.7607C22.8593 59.866 23.5661 60.0647 23.3575 59.9893C23.2281 59.9477 22.276 59.6437 22.5889 59.7607ZM41.879 59.3457C41.6265 59.4568 40.1419 59.9148 40.1241 59.9219C40.1192 59.9483 41.7785 59.4138 41.879 59.3457ZM20.3516 58.6816C20.3718 58.6785 21.0832 58.9883 21.2637 59.0537C21.4933 59.1401 21.2238 59.0126 21.6045 59.165C21.8447 59.2596 21.6979 59.2445 21.7481 59.2656C21.7901 59.2867 22.6461 59.5684 22.2989 59.4873C22.1967 59.4653 21.5816 59.2315 21.4444 59.1709C21.4219 59.1608 21.5351 59.1736 21.2598 59.0674C21.0384 58.9806 21.3558 59.1427 20.9288 58.9639C20.4983 58.7801 21.0834 58.9991 21.0469 58.9814C20.9965 58.9613 20.3282 58.6926 20.3516 58.6816ZM19.0245 58.1484C18.6681 57.9626 19.0297 58.1203 19.2666 58.2441C19.2862 58.2542 19.3404 58.3105 19.0245 58.1484ZM16.6534 56.835C16.7292 56.9004 18.6572 58.0018 18.9278 58.1152C19.0134 58.1935 18.1815 57.7356 17.9795 57.623C17.9436 57.6038 17.9083 57.6126 17.71 57.5039L17.5987 57.4297C17.5645 57.4043 17.5362 57.3824 17.5235 57.375C17.4591 57.3491 16.1359 56.5489 16.6534 56.835ZM49.0147 57.8359C48.9891 57.8512 49.034 57.821 49.1221 57.7578C49.1411 57.7461 49.1602 57.7351 49.1788 57.7236C49.112 57.769 49.056 57.81 49.0147 57.8359ZM49.959 57.1836C50.2119 57.0694 49.8338 57.3197 49.1788 57.7236C49.4503 57.539 49.8743 57.241 49.959 57.1836ZM46.1026 57.457C46.0741 57.4696 46.0548 57.4758 46.0489 57.4707C46.1249 57.4379 46.133 57.4374 46.1026 57.457ZM14.8516 55.543C14.982 55.6169 15.3631 55.8963 15.627 56.0762C15.4929 56.0073 15.1078 55.7325 14.8516 55.543ZM14.337 55.4277C14.186 55.2975 14.942 55.8435 15.1084 55.9775C15.307 56.1484 14.3621 55.457 14.337 55.4277ZM14.6895 55.4502C14.7103 55.4511 15.2623 55.8464 15.336 55.9004C15.4441 55.9851 14.8569 55.5851 14.6895 55.4502ZM49.8643 54.9062C50.2546 54.6141 49.9911 54.8902 49.6602 55.1172C49.6229 55.1419 49.3316 55.2963 49.8643 54.9062ZM11.1192 52.5742C11.0515 52.5329 11.6276 53.0976 11.6456 53.1133C11.6684 53.1383 11.7271 53.2596 11.7803 53.3125C11.8552 53.4134 13.4689 54.8333 13.7452 55.04C13.0733 54.4059 13.1169 54.5015 13.0547 54.4521C12.9223 54.3399 12.6295 54.061 12.3848 53.8447C12.6687 54.0886 12.9572 54.3277 13.25 54.5605C13.0064 54.3894 11.152 52.6272 11.1192 52.5742ZM51.2149 53.8105C51.1848 53.8594 50.7992 54.1843 50.6309 54.3184C50.6268 54.3043 51.0589 53.9526 51.2149 53.8105ZM10.4756 51.9004C10.604 52.0425 10.8841 52.3542 10.9903 52.457C11.2868 52.7479 10.5839 51.9977 10.4756 51.9004ZM10.5362 51.8281C10.2906 51.5367 11.1629 52.4701 10.8497 52.1641C10.8369 52.1527 10.5486 51.8438 10.5362 51.8281ZM53.6172 51.4385C53.6042 51.4551 53.3188 51.7656 53.3077 51.7754C53.0383 52.0398 53.8975 51.104 53.6172 51.4385ZM9.77934 51.0996C9.89981 51.2703 10.2895 51.7032 10.1875 51.5615C10.1748 51.5462 9.84398 51.156 9.77934 51.0996ZM9.02641 50.1514C8.9319 50.0165 8.63646 49.6678 8.78911 49.8926C8.88594 50.0227 9.03723 50.1671 9.02641 50.1514ZM8.65629 49.7549C8.514 49.5638 7.81869 48.5852 8.09868 49.0049C8.11951 49.0422 8.64094 49.7589 8.65629 49.7549ZM7.64751 48.2695C7.77383 48.4953 8.20847 49.0729 8.10747 48.917C8.03264 48.8099 7.51807 48.0464 7.64751 48.2695ZM7.37114 47.874C7.07675 47.4599 7.644 48.3342 7.85747 48.6328C7.87784 48.6436 7.38901 47.9049 7.37114 47.874ZM56.587 47.5508C56.5933 47.5672 56.1929 48.1831 56.167 48.2139C56.016 48.4178 56.4233 47.7852 56.587 47.5508ZM57.504 45.9619C57.7375 45.5242 58.0319 44.7303 57.9502 45.0947C57.6286 45.7468 57.2821 46.3884 56.9122 47.0146C57.0185 46.796 57.3383 46.2809 57.504 45.9619ZM57.6915 45.9092C57.6126 46.0094 57.3398 46.5362 57.1582 46.8291C57.2613 46.7063 57.523 46.2198 57.6915 45.9092ZM5.85649 45.1035C5.99325 45.3572 6.85551 46.9324 6.71977 46.7217C6.59664 46.5586 5.96851 45.3819 5.85649 45.1035ZM57.9161 45.5674C57.8556 45.6481 57.5325 46.2561 57.3946 46.4971C57.4768 46.4015 57.7534 45.8697 57.9161 45.5674ZM57.292 46.2275C57.3822 46.0217 57.8421 45.1964 57.6602 45.5596C57.6106 45.6606 57.3886 46.0562 57.292 46.2275ZM58.4541 44.3643C58.3524 44.5487 57.9787 45.3467 58.0508 45.2158C58.0783 45.1755 58.5128 44.2691 58.4541 44.3643ZM4.94145 43.0176C5.01427 43.2094 5.25468 43.7485 5.22758 43.7197C5.09442 43.4245 4.96318 43.1258 4.94145 43.0176ZM59.3047 42.4121C59.2889 42.4594 58.9222 43.4078 58.8448 43.5723C58.9863 43.3287 59.4369 42.1212 59.3047 42.4121ZM4.78618 42.9717C4.7128 42.7742 4.70876 42.7106 4.66899 42.6211C4.65555 42.5911 4.63663 42.5921 4.59184 42.4883C4.65525 42.65 4.72 42.8114 4.78618 42.9717ZM4.24809 41.5645V41.5664C4.34181 41.8313 4.4394 42.0935 4.54106 42.3564C4.42938 42.0599 4.25146 41.4944 4.24809 41.5645ZM61.7618 39.6836C61.9001 39.1003 62.3959 37.2847 61.9385 39.248C61.8099 39.7528 61.8697 39.4393 61.8643 39.459C61.5621 40.5343 61.6649 40.2574 61.625 40.4268C61.53 40.7898 61.5064 40.7192 61.336 41.3281C61.617 40.3227 61.3492 41.2332 61.3233 41.2568C61.2306 41.349 61.7564 39.9362 61.8575 39.4229C61.8738 39.3523 61.7217 39.865 61.7618 39.6836ZM61.6338 40.4619C61.7009 40.3275 61.4529 41.1518 61.4082 41.2676C61.3939 41.3112 61.5508 40.6396 61.6338 40.4619ZM60.0596 40.5635C60.1073 40.3852 59.8779 41.0371 59.8643 41.127C59.8586 41.1818 60.0312 40.6774 60.0596 40.5635ZM3.83501 40.0186C3.73104 39.6262 3.53708 38.9062 3.60844 39.25C3.62244 39.3267 3.81714 39.997 3.83501 40.0186ZM62.2999 38.582C62.296 38.6066 62.1965 39.0428 62.1915 39.0576C62.0832 39.4462 62.3834 38.1236 62.2999 38.582ZM3.44047 38.5088C3.39437 38.2905 3.24031 37.5613 3.29399 37.8857C3.31636 38.0265 3.41738 38.4665 3.44047 38.5088ZM61.3379 37.5029C61.3339 37.7296 61.4027 37.2893 61.4336 37.1494C61.4625 37.0218 61.4998 36.9412 61.5332 36.6543C61.472 36.9389 61.4071 37.2221 61.3379 37.5029ZM1.39458 36.0352C1.32052 35.7179 1.56503 37.3676 1.6309 37.5C1.58922 37.2836 1.39708 36.0751 1.39458 36.0352ZM61.9073 34.4883C61.8908 34.8749 61.7834 35.725 61.7403 36.0752C61.7351 36.1158 61.8247 35.9028 61.711 36.4219C61.6419 36.7743 61.8709 34.8352 61.9073 34.4883ZM62.1026 35.0527C62.1485 34.706 62.0794 35.4798 62.042 35.709C62.0303 35.7278 62.0973 35.1062 62.1026 35.0527ZM62.4844 33.2324C62.5078 33.2682 62.4032 34.7493 62.3682 35.0059C62.3785 34.864 62.4724 33.2804 62.4844 33.2324ZM62.4522 32.0098C62.4543 31.9633 62.5096 32.0805 62.4981 32.4062C62.4416 33.4265 62.4763 32.681 62.3653 34.8125C62.4064 33.9188 62.3461 34.761 62.3467 34.5859C62.3486 34.446 62.3943 33.9227 62.3506 34.2256C62.4011 33.9249 62.4365 32.8732 62.4483 32.332L62.4522 32.0098ZM1.21489 33.957C1.25151 34.4859 1.37291 35.031 1.30766 34.3799C1.30038 34.3109 1.22048 33.8961 1.21489 33.957ZM62.2588 32.6768C62.2656 32.6633 62.2481 33.4016 62.2383 33.4863C62.2001 33.937 62.2366 32.8001 62.2588 32.6768ZM62.3038 32.752C62.3164 32.731 62.2988 33.3533 62.293 33.4082C62.2656 33.7565 62.2943 32.9846 62.3038 32.752ZM2.77934 32.7598C2.78374 32.3002 2.83627 33.8857 2.79887 33.3711C2.79545 33.3401 2.77772 32.7851 2.77934 32.7598ZM61.4668 31.3154C61.4737 30.8513 61.5026 31.9156 61.4942 31.9678C61.481 32.1028 61.4657 31.5229 61.4668 31.3154ZM1.61821 26.4053C1.61665 26.3345 1.28077 28.766 1.29106 28.8662C1.28256 28.9257 1.24184 28.8963 1.23149 28.958C1.22253 28.9906 1.15899 29.9753 1.15141 30.1045C1.14803 30.1414 1.14484 30.1696 1.14262 30.1904C1.16228 30.0444 1.11775 30.9351 1.10649 30.9072C1.09996 30.8867 1.13099 30.2784 1.13481 30.2549C1.13577 30.2454 1.13689 30.2372 1.13774 30.2295C1.09961 30.3504 1.28059 28.2767 1.21977 28.7217C1.273 28.1161 1.24461 28.8103 1.28325 28.3555C1.29872 28.2013 1.2588 28.046 1.40434 27.2471V27.2451C1.44837 27.0107 1.41884 27.2796 1.42973 27.2383C1.43258 27.2222 1.57815 26.4929 1.48247 27.1025C1.3478 28.0309 1.42979 27.1847 1.35747 27.6787C1.34537 27.7381 1.25836 28.6777 1.27251 28.6309C1.27351 28.6252 1.30018 28.3412 1.30864 28.2939C1.33901 28.1195 1.34396 28.2048 1.3477 28.1816C1.35091 28.0997 1.54625 26.6151 1.61821 26.4053ZM1.28715 29.4375C1.22096 29.8678 1.18628 30.6148 1.23247 30.4316C1.27825 29.6102 1.18585 30.5292 1.28715 29.4375ZM2.93755 28.9053C2.93798 28.9773 2.86958 29.9386 2.85063 29.9902C2.81618 30.0539 2.91129 29.088 2.93755 28.9053ZM62.0088 26.374C62.1547 26.8915 62.4389 29.3002 62.4317 29.4297C62.4416 29.5269 62.426 28.7927 62.4903 29.9375C62.4989 29.092 62.2886 27.9668 62.2706 27.8447C62.2553 27.7213 62.3079 27.911 62.3047 27.8828C62.3043 27.8156 62.0944 26.5097 62.0733 26.4434C62.0636 26.3985 62.0698 26.6408 62.0088 26.374ZM62.2139 27.9102C62.2717 28.328 62.3289 28.9832 62.3692 29.208C62.3333 28.7904 62.2669 28.1341 62.2139 27.9102ZM61.5821 24.709C61.8001 25.7228 61.8276 25.6418 61.8877 25.9336C61.9656 26.342 61.9116 26.3185 61.8819 26.2393C61.9816 26.5673 62.2167 27.9987 62.2989 28.8369C62.2399 28.0989 62.0854 26.9124 61.9502 26.1963C61.9132 25.9923 61.8609 25.7974 61.8252 25.623C61.7758 25.3832 61.8225 25.5303 61.834 25.5635C61.7648 25.1975 61.6198 24.7463 61.7881 25.5186C61.7229 25.2472 61.6545 24.9772 61.5821 24.709ZM3.25493 26.3809C3.4476 25.1294 2.57528 31.2236 3.00883 27.6807C2.9933 27.8477 2.97858 28.015 2.96587 28.1826C3.02979 27.7359 3.11701 27.1867 3.10551 27.1699C3.10934 27.1609 3.11464 27.139 3.12309 27.1035C3.13109 27.0655 3.20861 26.5866 3.25493 26.3809ZM62.3125 26.8389C62.3878 27.0763 62.601 28.9053 62.5225 28.4229C62.5242 28.3381 62.2339 26.4921 62.3125 26.8389ZM62.1612 26.2861C62.2198 26.447 62.5053 28.3134 62.4971 28.3926C62.5529 28.9575 62.2106 26.4269 62.1612 26.2861ZM60.7481 26.291C60.7771 26.2744 60.9859 27.5321 61.0274 27.8389C60.9638 27.5158 60.8406 26.7633 60.7481 26.291ZM62.0928 26.7217C62.0207 26.2251 62.2367 27.4928 62.2344 27.5342C62.2677 27.864 62.13 26.9447 62.0928 26.7217ZM1.66997 26.7666C1.72801 26.326 1.53489 27.3409 1.52544 27.5303C1.51741 27.6238 1.64217 26.9598 1.66997 26.7666ZM62.3252 27.5078C62.2541 26.9059 61.9679 25.6033 62.1163 26.1338C62.1906 26.4011 62.1954 26.5848 62.2012 26.6191C62.2601 26.9569 62.3697 27.6591 62.3252 27.5078ZM61.8614 26.21C61.7918 25.709 61.7311 25.9027 61.7403 25.9648C61.7802 26.2204 61.9727 27.0918 62.0069 27.2725C61.7731 25.9562 61.8887 26.4464 61.8614 26.21ZM62.1885 26.3164C62.1807 26.2144 62.2599 26.4493 62.2813 26.6709C62.2902 26.7656 62.2408 26.594 62.1885 26.3164ZM2.72075 21.9365C2.83189 21.6306 2.98058 21.3029 2.92583 21.4697C2.91133 21.5101 2.67512 22.1288 2.57622 22.4463C2.28501 23.3821 2.38821 23.1533 2.37016 23.208C2.35161 23.2689 2.16562 23.8555 2.08305 24.1826C1.87787 24.9999 1.79783 25.3836 1.56938 26.5117C1.67591 25.8539 1.57033 26.207 1.73149 25.4795C1.72279 25.5418 1.71442 25.6046 1.7061 25.667C1.91073 24.6234 2.24054 23.4442 2.62505 22.2842C2.72332 21.99 2.58275 22.319 2.72075 21.9365ZM61.8184 26.4902C61.788 26.1095 61.6378 25.7936 61.7657 26.3623C61.7716 26.3892 61.8186 26.504 61.8184 26.4902ZM61.5625 24.2168C61.6604 24.6602 61.888 25.5658 61.8428 25.3291C61.8266 25.2221 61.6039 24.2915 61.5625 24.2168ZM61.2754 23.9521C61.1423 23.5023 61.4392 24.664 61.5118 24.8799C61.4579 24.6543 61.3151 24.0804 61.2754 23.9521ZM61.1172 23.0098C61.1672 23.157 61.6127 24.7691 61.4532 24.1143C61.446 24.0601 61.1112 22.9359 61.1172 23.0098ZM59.7579 23.0996C59.5715 22.4504 60.1202 24.1387 60.1124 24.1709C60.1152 24.1934 59.8609 23.44 59.7579 23.0996ZM60.2657 20.3779C59.9445 19.7889 60.9427 22.0934 60.9444 22.4141C60.066 19.8417 61.4486 24.1399 60.9463 22.3057C61.3887 23.8098 61.1161 22.7912 61.2032 23.0176C61.2965 23.2589 61.5186 24.1161 61.5303 24.0684C61.3876 23.5429 61.2324 23.0254 61.0616 22.5078C61.1717 23.03 60.8475 21.9699 60.7579 21.6035C60.6948 21.4628 60.6299 21.321 60.5645 21.1807C60.5387 20.9171 60.4009 20.8629 60.2657 20.3779ZM60.3301 20.2119C60.468 20.4011 61.4617 23.2574 61.5528 23.7363C61.4033 23.3267 61.3296 22.9867 61.1465 22.4307C61.0967 22.2811 61.0971 22.3247 61.0918 22.3086C61.0047 22.0508 61.0839 22.2389 61.0303 22.0801C61.0152 21.9731 60.1972 19.9219 60.3301 20.2119ZM59.5098 21.8359C59.6078 22.0991 59.7369 22.4722 59.7442 22.5469C59.6875 22.3672 59.4976 21.8352 59.5098 21.8359ZM58.3731 19.5391C58.1615 18.9931 59.2382 21.444 59.2344 21.5303C59.2468 21.5688 59.2541 21.5945 59.2579 21.6094C59.3014 21.6982 59.4768 22.1737 59.4766 22.2354C59.4284 22.0923 59.2833 21.7037 59.2676 21.6582C59.2612 21.6386 59.2559 21.6235 59.253 21.6133C59.1882 21.4434 58.4318 19.6359 58.3731 19.5391ZM60.002 20.1924C60.1139 20.4436 60.3734 21.1416 60.4239 21.2373C60.3401 20.999 60.0673 20.3029 60.002 20.1924ZM3.14262 21.2363C3.22856 21.0164 3.51473 20.2805 3.37212 20.6074C3.34794 20.6592 3.12421 21.2509 3.14262 21.2363ZM60.2491 19.9453C60.4203 20.2264 60.9375 21.6376 60.5469 20.6865C60.5095 20.5956 60.3698 20.2044 60.2491 19.9453ZM60.2579 20.6885C60.1288 20.315 60.0379 20.2509 60.2256 20.665C60.2331 20.6811 60.2622 20.7023 60.2579 20.6885ZM58.5088 19.5225C58.8283 20.1986 58.5586 19.5591 58.8584 20.2451C58.7658 20.0895 58.7183 19.9821 58.5088 19.5225ZM60.0967 20.0459C59.8984 19.5332 59.9403 19.7982 60.1153 20.165C60.1254 20.1863 60.1059 20.0697 60.0967 20.0459ZM58.5713 16.7002C58.8041 17.0474 60.1267 19.7288 60.1543 19.8672C60.1716 19.9029 60.1992 19.921 60.1924 19.9033C60.1686 19.7463 58.825 17.0452 58.5713 16.7002ZM57.9805 18.7178C57.9949 18.7411 58.2421 19.241 58.252 19.2666C58.4386 19.6873 57.7336 18.2654 57.9805 18.7178ZM59.1934 17.5391C59.197 17.4822 59.745 18.5772 59.878 18.8652C59.7461 18.626 59.4073 17.9279 59.1934 17.5391ZM59.377 18.6514C59.2841 18.4076 59.1003 18.1688 59.2862 18.5449C59.3409 18.6566 59.3862 18.6769 59.377 18.6514ZM57.1924 17.0566C57.0602 16.8277 57.2517 17.0747 57.3809 17.3369C57.4214 17.419 57.2664 17.1847 57.1924 17.0566ZM56.1993 15.6768L56.4317 16.0049C56.602 16.267 56.5999 16.3351 56.5762 16.2988C56.1612 15.7051 56.4525 16.072 56.4454 16.0557C56.4214 16.0104 56.1161 15.5929 56.1993 15.6768ZM57.3926 14.6973C57.7415 15.2534 58.831 16.9091 58.1446 15.8076C58.1509 15.8258 58.2171 15.9657 57.9805 15.584C57.9575 15.5492 57.9421 15.4652 57.585 14.9443C57.5126 14.8392 57.3863 14.6858 57.3926 14.6973ZM6.0479 15.373C6.02465 15.378 5.64492 15.9991 5.70415 15.9238C5.72241 15.8972 6.0627 15.3698 6.0479 15.373ZM57.2129 14.7139C57.3578 14.9168 57.7189 15.4924 57.754 15.5225C57.6196 15.3127 57.2504 14.7393 57.2129 14.7139ZM57.1739 14.416C57.2673 14.5402 58.1157 15.8485 57.8125 15.3604C57.7898 15.3145 57.1987 14.4224 57.1739 14.416ZM54.9297 13.9336C54.9974 13.9671 56.0848 15.4248 56.044 15.4277C55.6884 14.9177 55.3169 14.4198 54.9297 13.9336ZM9.22954 13.6406C9.13305 13.7716 8.57823 14.4941 8.47368 14.6172C8.69341 14.3082 8.98046 13.9493 9.22954 13.6406ZM54.3497 13.2158C54.1098 12.9106 54.6982 13.6028 54.8575 13.8184C54.8482 13.8231 54.3872 13.2598 54.3497 13.2158ZM9.82915 12.8936C9.80499 12.9361 9.30396 13.5346 9.23442 13.6055C9.37205 13.4226 9.64427 13.1082 9.82915 12.8936ZM7.87602 12.6475C8.13357 12.3552 6.93769 13.8735 7.47172 13.1523C7.49468 13.1189 7.86236 12.6603 7.87602 12.6475ZM8.51372 11.8184C8.79391 11.5215 7.73324 12.7508 7.67973 12.8457C7.59127 12.9051 8.4375 11.8865 8.51372 11.8184ZM54.5098 10.9502C54.2912 10.695 55.001 11.4365 55.1856 11.6787C55.2681 11.8024 54.5413 10.9791 54.5098 10.9502ZM52.5674 11.1113C52.6513 11.2263 53.1508 11.7011 53.0186 11.5527C53.0005 11.5297 52.5134 11.0319 52.5674 11.1113ZM51.5372 10.2393C51.8536 10.5224 52.1439 10.8027 52.418 11.0801C52.3534 11.029 51.5677 10.274 51.5372 10.2393ZM9.23735 11.0801C9.35819 10.9475 9.48046 10.8159 9.60356 10.6855C9.46177 10.8368 9.34132 10.9684 9.23735 11.0801ZM51.4151 10.0342C51.3838 9.94382 50.7421 9.43918 50.0694 8.92871C50.0859 8.94694 50.1065 8.97097 50.167 9.01953C50.3666 9.16922 51.3765 10.0318 51.5772 10.208C51.5772 10.2115 51.5886 10.2247 51.6143 10.251C51.8469 10.4809 52.6177 11.1399 52.4874 11.0068C52.3224 10.8303 51.7459 10.3211 51.6065 10.2246C51.5858 10.2011 51.5266 10.1406 51.4151 10.0342ZM47.667 7.33887C47.6137 7.31413 48.2733 7.75179 48.3125 7.76074C48.1662 7.66141 47.7111 7.35658 47.667 7.33887ZM13.9561 7.01953C13.7257 7.18699 13.1339 7.62855 13.0401 7.72168C13.3112 7.50105 14.0467 6.98481 13.9561 7.01953ZM47.5059 7.17285C47.4484 7.15278 48.1226 7.5807 48.1377 7.5918C48.2594 7.65566 47.6838 7.27321 47.5059 7.17285ZM18.8907 5.87598C18.2409 6.2365 17.3962 6.69765 18.5655 6.10547C16.8808 7.02062 17.5741 6.62701 17.503 6.65625C17.4224 6.69885 17.1746 6.85582 17.1221 6.88379C15.8878 7.54185 18.1956 6.199 18.8907 5.87598ZM19.0655 5.83008C19.4434 5.64505 19.0459 5.87463 18.8409 5.96582C18.7648 5.99934 18.97 5.87707 19.0655 5.83008ZM16.9737 5.09668C16.4811 5.34611 16.5339 5.37185 16.8848 5.1709C17.0091 5.10062 16.9893 5.08895 16.9737 5.09668ZM21.2422 4.86914C20.9648 4.99928 19.9152 5.4348 20.4004 5.20801C20.4737 5.17233 21.0387 4.95047 21.2422 4.86914ZM43.5733 5.125C43.2476 4.97968 43.3054 5.03316 43.3252 5.04199C43.5688 5.15287 43.9399 5.29155 43.5733 5.125ZM17.9786 4.39355C17.8432 4.48155 17.3975 4.70715 17.1006 4.87012C17.1493 4.82734 17.7614 4.50503 17.9786 4.39355ZM22.7188 4.30469C24.7997 3.66627 22.8575 4.25085 22.3594 4.44141C22.1694 4.51058 22.3345 4.46956 22.1631 4.5332L22.1622 4.53418C20.8138 5.06767 21.0858 4.81508 22.8819 4.23535C22.8273 4.25805 22.7732 4.28168 22.7188 4.30469ZM42.1231 4.68555C40.0567 3.97937 39.7954 3.8489 41.6915 4.5C41.73 4.51283 42.2486 4.72343 42.1231 4.68555ZM35.1016 2.94141C35.0663 2.93993 35.4776 3.01096 35.5967 3.02539C35.7664 3.04505 35.6049 3.00384 35.7901 3.02734C36.4026 3.10659 36.9457 3.20933 37.5147 3.31738C37.5662 3.32707 37.1706 3.23738 37.6094 3.32129C37.6778 3.33487 38.0823 3.43332 38.6036 3.55078C39.7668 3.76035 40.5934 4.05354 42.0108 4.53711C41.9615 4.50696 40.9075 4.12975 40.8399 4.11328C39.6522 3.70538 37.4538 3.19863 36.1465 3.0332C35.8133 2.98683 35.9731 3.02363 35.8291 3.00488C35.7154 2.99084 35.8543 2.98123 35.4707 2.94434C35.2885 2.92683 35.8436 3.02165 35.7178 3.01172C35.6367 3.00394 35.2326 2.94595 35.1016 2.94141ZM18.7442 4.13867C18.537 4.23504 18.395 4.34504 18.419 4.33496C18.6486 4.23905 18.9552 4.05384 18.7442 4.13867ZM40.5616 4.10352C40.7214 4.15022 40.8446 4.18856 40.9024 4.21387C40.7889 4.17517 40.6748 4.14059 40.5616 4.10352ZM24.0752 3.86133C24.0087 3.89207 23.3924 4.06952 23.1758 4.1416C23.3159 4.07788 23.7669 3.94547 24.0752 3.86133ZM24.5655 3.79199C24.6651 3.76859 25.0349 3.70691 24.6231 3.81934C24.6241 3.77812 23.9804 3.93521 23.6817 4.06348C23.4751 4.09178 24.1265 3.89141 24.5655 3.79199ZM20.0499 3.44141C20.1399 3.43064 19.1696 3.82562 18.8448 3.98828C18.7535 3.99719 19.7134 3.58025 20.0499 3.44141ZM38.086 3.45312C38.0446 3.45841 38.7854 3.61495 38.8526 3.61816C38.7055 3.5806 38.1003 3.44998 38.086 3.45312ZM37.3165 3.30957C37.9493 3.456 37.2485 3.2964 37.2686 3.3291C37.6987 3.40339 38.7655 3.64072 38.0372 3.45508C37.894 3.41895 37.5177 3.34775 37.3165 3.30957ZM36.7247 3.19727C36.6538 3.19415 36.1844 3.15067 36.587 3.21094C36.773 3.23919 37.077 3.25871 36.7247 3.19727ZM34.9815 2.99414C35.0309 2.99644 35.0883 3.00137 35.1514 3.00879C35.183 3.01416 35.2049 3.01804 35.2178 3.02148C35.1382 3.01204 35.059 3.00312 34.9815 2.99414ZM34.8038 2.99707C34.8328 3.00013 34.8633 3.00506 34.8956 3.00879C34.8618 3.00518 34.8303 3.00484 34.8047 3.00098C34.7968 2.99978 34.7966 2.99851 34.8038 2.99707ZM31.4385 2.85547C31.231 2.85564 30.7163 2.87297 30.6602 2.8877C30.5922 2.90288 31.3426 2.87191 31.4385 2.85547ZM22.3848 2.54297C22.8535 2.4066 21.2557 2.94251 21.7686 2.74902C21.7981 2.73647 22.3587 2.54899 22.3848 2.54297ZM32.8682 2.7373C32.7944 2.72824 31.7841 2.73729 32.2012 2.75879C32.4901 2.77376 32.5366 2.75091 32.6045 2.75195C32.6873 2.74735 34.2847 2.84543 32.8682 2.7373ZM24.7793 1.97949C24.7289 1.96625 24.1025 2.14329 23.4756 2.3252C23.738 2.25226 23.6018 2.3055 23.7276 2.27051C23.7833 2.25026 24.8243 1.97003 24.7793 1.97949ZM39.0625 2.00293C39.0594 2.0037 39.04 1.99814 39.0079 1.99219C38.9911 1.98758 38.9745 1.98304 38.9581 1.97852C38.9999 1.98858 39.0359 1.99552 39.0625 2.00293ZM26.0264 1.60254C25.8407 1.65496 25.0834 1.80762 24.7325 1.89453C24.9537 1.81799 25.6085 1.68199 26.0264 1.60254ZM35.627 1.34668C34.8648 1.26085 38.0558 1.74196 37.2227 1.58789C37.1631 1.56646 35.6963 1.34369 35.627 1.34668ZM30.4766 1.12793C30.4345 1.14325 29.7414 1.17073 29.4922 1.19531C29.5305 1.1755 30.2245 1.14003 30.4766 1.12793Z" fill="black"/>
<path d="M41.1895 49.8359C41.2523 49.839 41.4812 49.8707 41.2188 49.877C41.2253 49.8386 40.8197 49.8238 40.6211 49.8594C40.4954 49.8276 40.9144 49.8228 41.1895 49.8359ZM22.4952 15.0176C22.5987 15.0185 22.4917 15.0382 22.5225 15.0391C22.7776 15.0463 24.7133 15.0201 25.1729 15.0391C24.8924 15.0334 23.4937 15.0737 23.5176 15.0879C23.5237 15.0898 23.8653 15.1051 23.9356 15.0977C24.0524 15.1148 24.4505 15.0619 24.667 15.0723C24.6905 15.0737 24.5962 15.103 24.9815 15.1084C25.1148 15.1102 25.4641 15.0873 25.8155 15.1133C26.3238 15.1008 28.9951 15.1392 29.1817 15.1074C29.1696 15.1053 28.8172 15.0938 29.0655 15.0811C29.4034 15.0637 29.1 15.1229 29.4942 15.1279C29.5559 15.1287 30.6507 15.1228 30.6866 15.1191C31.0174 15.0863 30.0599 15.0722 30.0733 15.0684C30.1083 15.0587 30.9033 15.0534 30.9356 15.0557C30.9636 15.0582 30.3186 15.1014 31.0967 15.085C31.0075 15.0798 30.9183 15.0745 30.8291 15.0693C31.196 15.0592 31.2315 15.089 31.3204 15.0908C31.5966 15.0966 31.8955 15.0509 32.3379 15.1074C32.4546 15.1224 32.2625 15.1392 32.2754 15.1416C32.4161 15.1618 32.5961 15.1081 32.8077 15.1484C32.809 15.152 32.3437 15.1757 33.1915 15.1758C33.1323 15.1719 33.0729 15.1679 33.0137 15.1641C33.1351 15.1554 34.0048 15.1503 34.1231 15.1523C34.4655 15.1583 34.1676 15.1859 34.5118 15.1826C34.291 15.1446 35.3366 15.1391 35.2764 15.1719C35.4225 15.1308 36.3115 15.1631 36.7295 15.1641C36.9932 15.1646 37.5315 15.1463 37.6153 15.1484C37.7171 15.151 37.6863 15.1793 37.8702 15.1855C37.9227 15.1873 38.4716 15.1663 38.9532 15.1953C39.0464 15.2009 39.2422 15.2488 39.0694 15.2607C38.7742 15.281 38.2171 15.2433 38.2178 15.2705C38.2262 15.3006 38.983 15.2832 39.1866 15.2871C40.1235 15.3052 39.5865 15.3369 39.6075 15.3467C39.67 15.3701 40.1808 15.37 40.2051 15.3721C40.2936 15.3814 39.9329 15.3997 39.9249 15.4141C39.9182 15.4327 40.4125 15.4663 40.3008 15.4727C40.1397 15.4816 39.6842 15.4537 39.6553 15.4551C39.2805 15.4732 39.7946 15.5169 39.9366 15.5381C39.9795 15.5446 39.8092 15.5547 39.8438 15.5566C40.3879 15.5857 39.9591 15.496 40.3204 15.502C40.6363 15.5072 40.2459 15.5345 40.2403 15.5371C40.2562 15.5388 40.6427 15.5407 40.7032 15.5508C40.7317 15.5559 39.7296 15.611 39.7715 15.6357C40.0915 15.6303 40.4115 15.6246 40.7315 15.6191C40.7565 15.6513 40.2988 15.6277 40.2491 15.6309C40.1542 15.6375 40.4145 15.6538 40.4092 15.6641C40.4031 15.6706 40.0888 15.6936 40.3721 15.7031C40.4696 15.7064 40.6744 15.6839 41.0293 15.707C39.794 15.7365 40.6502 15.7552 40.6866 15.7666C40.7194 15.7781 40.1341 15.8045 40.8477 15.7998C40.8787 15.8626 40.8324 15.82 40.629 15.8311C40.3807 15.8446 40.9553 15.8653 40.045 15.8496C40.0968 15.879 40.8295 15.8766 40.8682 15.8789C40.9005 15.8811 40.7391 15.8955 40.7969 15.9004C41.4825 15.9571 41.0121 15.9316 41.21 15.9678C41.2277 15.971 41.8767 15.984 41.3829 15.9893C40.4832 15.9989 40.1073 15.9578 39.9561 16.0469C40.6214 16.0855 41.4275 16.0283 41.6299 16.0273C41.9396 16.0259 41.6191 16.0437 41.6573 16.0488C41.6726 16.0504 41.9321 16.0494 41.9405 16.0508C42.1307 16.1187 40.7536 16.0517 40.3194 16.0635C40.4356 16.0736 40.5518 16.0836 40.668 16.0938C40.5102 16.0942 40.3522 16.0943 40.1944 16.0947C40.946 16.1152 40.2207 16.1032 40.0332 16.1582C39.9963 16.1702 40.4826 16.1494 39.9219 16.1836C40.3373 16.1915 40.2051 16.202 40.5811 16.1865C40.5714 16.2086 39.7257 16.2338 39.3916 16.2451C40.5706 16.2699 39.8985 16.1887 40.918 16.2314C41.1061 16.2042 40.6205 16.2096 40.6602 16.2051C40.8028 16.189 41.1368 16.2149 41.5391 16.1582C41.603 16.1488 41.3277 16.1197 41.7374 16.1211C41.7827 16.1213 42.0437 16.1466 42.0411 16.1484C42.0064 16.1676 41.7471 16.16 41.7364 16.168C41.7273 16.1755 42.0152 16.1708 42.0166 16.1729C42.0255 16.1969 41.7757 16.182 41.8116 16.1895C41.8899 16.2058 42.9287 16.2583 41.5733 16.2432C42.699 16.216 41.7169 16.2161 41.2784 16.2266C41.1668 16.2292 41.1384 16.244 40.9795 16.249C40.7745 16.2555 40.5339 16.2483 40.4278 16.251C40.3151 16.2539 40.9612 16.2875 40.0245 16.2773C40.5016 16.3111 41.3448 16.2751 41.8135 16.2988C42.7586 16.3468 41.1535 16.3577 40.9864 16.3623C40.9432 16.3637 41.0912 16.3826 41.0616 16.3838C41.0096 16.3856 40.1029 16.3766 40.0127 16.3926C39.9232 16.4086 40.3453 16.3925 40.3741 16.4092C40.3482 16.4206 39.3073 16.4397 39.8897 16.4473C40.2997 16.4525 41.0554 16.4074 41.1827 16.4561C40.5799 16.4601 39.9769 16.4647 39.3741 16.4688C39.7038 16.4873 40.0336 16.5059 40.3633 16.5244C39.6868 16.5303 39.1016 16.5087 38.459 16.5352C39.9979 16.5943 37.9725 16.5828 37.9356 16.5898C37.9281 16.5942 38.536 16.6426 38.6338 16.6514C38.0952 16.6699 36.4584 16.6788 37.4161 16.7383C37.2427 16.7249 36.8229 16.7581 36.8262 16.7607C36.8796 16.787 37.7972 16.7703 37.6485 16.7939C37.475 16.8215 37.2317 16.7842 36.9649 16.7871C35.5951 16.8027 35.9702 16.9397 34.5967 16.918C34.624 16.9228 34.6515 16.9278 34.6788 16.9326C33.1859 16.9248 31.6931 16.917 30.2002 16.9092C29.6161 16.9511 28.0614 16.9763 27.2979 16.9717C27.1439 16.9708 26.3933 16.9492 26.3331 16.9453C26.2276 16.9379 26.8071 16.9347 26.545 16.9209C26.4886 16.9181 25.2143 16.9093 25.3028 16.9326C25.4459 16.9353 25.8943 16.9232 25.9678 16.9287C26.4826 16.9681 22.5499 16.9364 22.3487 16.9521C22.4358 16.9597 22.5233 16.968 22.6104 16.9756C22.3618 16.9718 22.1129 16.9676 21.8643 16.9639C21.9648 16.9572 22.0656 16.951 22.1661 16.9443C21.8803 16.94 21.4957 16.9448 21.2305 16.9385C21.1879 16.9373 21.2997 16.9178 21.1973 16.917C21.1035 16.9162 21.1119 16.9384 21 16.9443C20.9919 16.9449 20.9826 16.945 20.9727 16.9453C20.8425 16.9355 20.2584 16.9971 20.0674 17.0752C19.3413 17.3059 18.7143 17.8343 18.3321 18.4922C18.7471 17.8212 18.2742 18.4653 18.2002 18.6807C18.1978 18.7311 18.1675 18.7215 17.9883 19.4824C17.929 19.8821 17.9034 19.6559 17.8916 20C17.8918 20.1057 17.8947 20.2537 17.9014 20.4648C17.9502 19.6244 17.9476 20.4505 17.9493 21.1094C17.9496 21.223 17.9422 22.1406 17.9444 22.5459C17.9451 22.6846 17.9701 22.8962 17.9707 23.0801C17.9712 23.2065 17.9573 23.3024 17.9581 23.4902C17.9612 24.3663 17.9628 25.2279 17.9581 26.1055C17.8926 25.5942 17.9297 26.5022 17.9268 26.5488C17.909 26.7579 17.9038 25.8128 17.8926 26.1865C17.8947 26.7092 17.8964 27.2322 17.8985 27.7549C17.9065 27.3261 17.9541 28.3218 17.9327 28.5059C17.9902 28.4311 17.8822 30.8867 17.9014 31.2627C17.9055 31.3408 17.9341 30.8302 17.9209 32.0156C17.9195 32.144 17.9017 32.0957 17.9034 32.1631C17.9044 32.2035 17.9605 32.448 17.9297 32.708C17.9185 32.8011 17.8819 32.1967 17.8965 33.5293C17.9532 32.9982 17.9273 35.3802 17.9131 35.8184C17.9207 35.731 17.928 35.6431 17.9356 35.5557C17.9151 35.9883 17.9347 36.0666 17.9336 36.1641C17.9294 36.5573 17.9094 37.0985 17.9112 37.4648C17.9132 37.8931 17.9483 37.8949 17.9346 38.3945C17.9424 38.2761 17.9503 38.1575 17.9581 38.0391C17.9562 38.3841 17.955 38.7292 17.9532 39.0742C17.9065 38.2749 17.9502 39.2465 17.9512 39.3105C17.9529 39.4126 17.9342 39.266 17.9366 39.4365C17.937 39.4542 17.9551 39.4292 17.9571 39.6924C17.9612 40.2418 17.9383 40.1551 17.9385 40.3857C17.9386 40.4069 17.9552 40.333 17.959 40.7314C17.9712 41.9989 17.9466 40.7254 17.9444 40.6768C17.9414 40.6134 17.8735 41.0468 17.8975 39.9707C17.8899 40.3312 17.8603 40.3686 17.8594 40.4092C17.8588 40.4452 17.8633 41.0719 17.8643 41.1064C17.8745 41.4138 17.8948 41.1441 17.8985 41.2031C17.9014 41.2522 17.8742 42.0059 17.9356 42.1836C17.8788 42.5446 17.8847 41.9764 17.876 41.3711C17.8644 41.2828 17.8526 41.9475 17.8526 41.9824C17.8527 42.8398 17.8999 42.3652 17.9297 42.5527C17.9453 42.6515 17.9133 43.0001 17.9551 42.6777C17.9595 43.4546 17.9354 42.9861 17.9317 43.0342C17.9264 43.1101 17.9382 43.3829 17.9366 43.417C17.9342 43.4664 17.9202 43.2932 17.9151 43.4902C17.9144 43.5232 17.9393 43.8405 17.9512 43.4307C17.9477 43.9782 17.9687 43.9336 17.9258 44.1191C18.0069 44.4964 17.8776 44.3934 17.8731 44.542C17.8612 44.936 17.9245 44.8223 17.9278 44.8428C17.9313 44.8684 17.9343 44.9241 17.9356 45C17.9252 45.272 18.03 45.8608 18.1075 46.0156C18.023 45.9565 17.9388 45.3723 17.9356 45.2422C17.8655 44.8073 17.9885 45.857 17.8936 45.5518C17.9326 45.6824 17.9802 45.8102 18.0352 45.9326C18.0865 46.1741 17.9204 45.864 18.2139 46.4648C18.2852 46.5505 18.012 46.0388 18.085 46.1338C18.1174 46.1946 18.2888 46.5332 18.3057 46.5371C18.3137 46.5411 18.1499 46.2375 18.1885 46.2793C18.2222 46.3972 18.9492 47.4219 18.3741 46.6553C18.5193 46.8786 18.5614 47.0273 18.7383 47.1865C18.7953 47.2365 18.6918 47.0942 18.6856 47.0537C18.6867 47.006 18.7322 47.1129 19.2266 47.498C19.2256 47.5452 18.8308 47.1908 18.8262 47.1738C18.81 47.1624 18.8319 47.275 18.8428 47.291C18.8603 47.3152 19.1172 47.5517 19.4424 47.7305C19.7641 47.9161 20.1466 48.0275 20.2784 48.0723C20.2141 48.0325 20.6452 48.1439 21 48.1387C21.2366 48.1403 21.4392 48.1407 21.4922 48.1367C21.5329 48.1335 21.3814 48.1109 21.4248 48.1084C21.6961 48.0937 22.4287 48.1347 22.7686 48.1357C23.1489 48.137 23.1009 48.1172 23.1221 48.1172C23.2894 48.1183 23.1561 48.1318 23.2579 48.1318C23.4121 48.1318 24.4698 48.1347 24.5284 48.1318C24.544 48.1309 24.371 48.1079 24.6026 48.1035C24.6427 48.1028 24.6177 48.13 25.3038 48.1182C26.1292 48.104 24.73 48.0843 25.0733 48.0557C25.6037 48.0964 25.5866 48.0564 25.7305 48.0596C25.781 48.0608 26.1514 48.0949 26.5538 48.0928C26.2647 48.0983 25.9756 48.1038 25.6866 48.1094C25.9708 48.1154 26.5227 48.1075 26.7569 48.1143C26.871 48.1176 26.7774 48.1463 27.0254 48.1455C27.0788 48.1449 27.285 48.0767 26.6368 48.1074C26.5848 48.0829 26.8935 48.0987 27.0372 48.0918C27.0589 48.0907 27.1449 48.0497 27.3282 48.0752C27.3705 48.0818 26.895 48.2006 28.128 48.1143C28.1677 48.1115 28.0305 48.0969 28.0684 48.0938C28.095 48.0916 28.41 48.0978 28.4454 48.0957C28.481 48.0934 28.3289 48.0765 28.3711 48.0732C28.5886 48.0567 28.8741 48.1221 28.4258 48.1172C28.5756 48.1252 28.7253 48.1326 28.875 48.1406C28.7156 48.0919 29.1112 48.1275 29.3184 48.126C30.6475 48.1164 29.7578 48.0838 29.9864 48.0674C30.3533 48.0411 30.0731 48.1247 30.6182 48.0996C30.6687 48.0973 30.0095 48.062 31.2969 48.082C31.107 48.0834 30.9165 48.0846 30.7266 48.0859C30.8362 48.1332 31.4137 48.0827 31.4581 48.082C31.9636 48.0755 31.6221 48.0927 32.3731 48.0684C32.4403 48.0662 32.5863 48.0781 32.7295 48.0723C33.3237 48.0483 31.945 48.0572 31.9073 48.0381C31.9282 48.0292 33.3667 48.0318 33.4229 48.0361C33.6389 48.0559 32.7521 48.0449 32.92 48.0693C32.9817 48.078 35.0946 48.0598 35.5196 48.0693C36.0089 48.0804 36.2293 48.1443 36.2325 48.0723C36.3706 48.143 36.4931 48.0952 36.5557 48.0957C37.3122 48.1022 37.3141 48.1025 37.9629 48.0957C38.1059 48.0943 38.2267 48.1159 38.2774 48.1123C38.3069 48.1101 38.252 48.0872 38.3965 48.0801C38.5977 48.0704 39.804 48.0938 39.8936 48.1064C39.9812 48.1191 39.384 48.112 39.4913 48.1328C39.9249 48.1349 40.3409 48.1296 40.7774 48.1318C40.9582 48.1328 40.8656 48.1481 40.9434 48.1484C40.9768 48.1486 41.6027 48.1353 41.5762 48.1299C41.5061 48.1175 39.5828 48.1261 40.0899 48.1006C40.1881 48.0956 40.5355 48.1288 40.4805 48.0879C41.1537 48.0915 41.8269 48.095 42.5 48.0986C43.3211 48.108 44.1322 47.7765 44.7149 47.1924C44.1941 47.7763 43.3247 48.1291 42.5108 48.1221C42.5075 48.1221 42.5038 48.1221 42.5 48.1221C42.3432 48.1222 41.8914 48.1196 41.9483 48.1396C42.1249 48.1407 42.31 48.1405 42.5 48.1406C43.1038 48.1483 43.7454 47.9362 44.1973 47.6504C44.2156 47.6391 44.1593 47.6973 44.2286 47.6562C44.3654 47.5865 44.718 47.2438 44.7735 47.1836C44.7868 47.1762 44.6022 47.3869 44.6739 47.3398C44.8617 47.2158 44.8357 47.1124 44.9541 46.9707C45.0749 46.8829 45.5739 46.0353 45.5684 45.7754C45.6207 45.5265 45.3325 46.4433 45.3125 46.3613C45.5032 45.9306 45.6149 45.4636 45.6192 45C45.621 44.7766 45.6229 44.5561 45.6221 44.3398C45.622 44.326 45.6032 44.4462 45.6006 44.2705C45.5961 43.9652 45.6228 43.8848 45.627 43.7363C45.6315 43.5762 45.6273 43.0102 45.6368 42.9326C45.638 42.923 45.6642 43.0365 45.6651 43.0547C45.6757 43.3009 45.6423 43.3892 45.6416 43.4121C45.6404 43.4966 45.6532 43.5801 45.6524 43.6572C45.6511 43.784 45.6388 43.8541 45.6377 44.0215C45.637 44.1368 45.6603 44.0254 45.6592 44.1367C45.6587 44.1776 45.6067 44.619 45.6602 44.6602C45.677 44.6474 45.698 41.0645 45.6846 40.7051C45.6782 41.0143 45.6715 41.3236 45.6651 41.6328C45.6807 41.0061 45.6386 40.2536 45.7012 40.1973C45.7032 39.2983 45.7061 38.399 45.7081 37.5C45.7272 36.8578 45.1464 36.2709 44.5 36.2852C44.1176 36.2843 43.7351 36.284 43.3526 36.2832C42.9368 36.2778 43.1643 36.2372 42.4805 36.249C42.6572 36.262 42.8341 36.2742 43.0108 36.2871C42.6601 36.278 41.106 36.2612 40.8545 36.2695C40.822 36.2707 40.7764 36.3074 40.3887 36.3105C40.0443 36.3133 39.9888 36.2856 39.8047 36.2803C39.6505 36.2759 39.4771 36.2827 39.4307 36.2812C39.3955 36.28 39.3813 36.2637 39.2969 36.2607C39.0295 36.2517 39.2457 36.2985 38.9805 36.2441C39.045 36.2421 39.1094 36.2403 39.1739 36.2383C38.858 36.2306 38.4293 36.2068 38.8565 36.1943C38.7656 36.1958 38.6795 36.1959 38.6026 36.1982C38.3883 36.1742 37.1909 36.1882 37.1436 36.1836C37.0879 36.1767 37.2936 36.1573 37.0235 36.1406C36.9667 36.1371 35.3569 36.1512 35.9356 36.1191C36.0552 36.1125 36.8271 36.1191 37.0137 36.1182C36.5756 36.0671 35.5491 36.1405 35.4336 36.1387C34.9689 36.1307 36.3282 36.0938 35.2793 36.0879C34.4729 36.0833 35.23 36.1182 34.92 36.1328C34.746 36.141 33.8365 36.1031 33.8575 36.1514C33.5441 36.1566 33.7272 36.1308 33.6885 36.1289C33.6489 36.1273 33.0349 36.1421 32.835 36.1318C32.8107 36.1306 32.8864 36.1056 32.8614 36.1035C32.8102 36.1 32.2247 36.1053 32.1954 36.1074C32.1802 36.1089 32.321 36.1304 32.2627 36.1357C32.1932 36.1419 31.6233 36.1372 31.5918 36.1436C31.5496 36.1531 32.2532 36.1471 32.1358 36.1719C31.8104 36.1656 31.2802 36.1822 31.0655 36.2021C31.1181 36.1964 31.4335 36.1953 31.543 36.1973C31.4909 36.2335 30.8145 36.2328 31.0459 36.2041C30.8988 36.2195 30.999 36.2276 30.9161 36.2422C30.8942 36.2459 30.6849 36.2466 30.6446 36.2529C30.6428 36.2544 30.8542 36.2681 30.8125 36.2754C30.7343 36.2887 30.0998 36.2857 30.0479 36.2822C29.9024 36.2723 30.418 36.2604 30.462 36.2451C30.4519 36.2418 30.0281 36.2126 30.0215 36.21C29.9989 36.1819 30.4837 36.2021 30.4297 36.1768C30.3087 36.1713 30.1875 36.1656 30.0665 36.1602C30.533 36.1342 31.3961 36.1476 31.6192 36.1182C30.9275 36.1269 30.2042 36.1259 30.2051 36.0596C30.2056 36.0316 30.5038 36.0149 30.4922 36.0078C30.4483 35.9825 30.0369 36.0099 30.0186 36.0088C30.006 36.0072 30 36.0054 30 36.0039C30.0086 35.9892 30.5879 35.9784 30.6202 35.9717C30.6694 35.9597 30.4115 35.911 30.4073 35.8994C30.4164 35.8972 30.8373 35.8854 30.6954 35.8662C30.5522 35.8469 30.1868 35.8457 30.1709 35.8438C30.1006 35.8321 30.7445 35.8213 30.7637 35.8145C30.7526 35.8101 30.4307 35.7902 30.418 35.7842C30.4094 35.778 30.6716 35.7645 30.7754 35.7451C30.8527 35.7307 30.6285 35.72 30.668 35.7178C30.7003 35.7163 31.3052 35.7164 31.335 35.7139C31.3778 35.7101 31.2387 35.6929 31.2569 35.6885C31.2862 35.6823 31.4819 35.6879 31.4581 35.6816C31.4388 35.6769 30.6768 35.6174 30.6817 35.6016C30.699 35.5756 31.4929 35.6364 30.7461 35.5303C30.7396 35.5296 30.5578 35.5378 30.5528 35.5371C30.441 35.5175 31.0256 35.4869 30.3096 35.4922C31.6423 35.4581 30.4757 35.4518 30.6729 35.4062C30.748 35.389 31.2508 35.3816 31.2676 35.3789C31.2172 35.3568 31.053 35.3732 30.9971 35.3623C30.9685 35.3562 31.4281 35.3336 31.3243 35.3184C31.2689 35.3106 30.78 35.3131 30.7598 35.3115C30.5658 35.2971 30.8034 35.2817 30.7608 35.2715C30.7307 35.2647 30.4364 35.2639 30.4288 35.2627C30.4209 35.2599 30.819 35.2324 30.9024 35.2227C30.966 35.2151 30.7271 35.2025 30.7715 35.1992C31.0392 35.1796 31.6083 35.2302 31.0596 35.1602C31.0254 35.1559 30.8186 35.1571 30.8125 35.1562C30.685 35.1364 31.0657 35.1353 31.1348 35.1191C31.2522 35.0911 30.7034 35.1066 31.1602 35.0869C30.8176 35.0686 30.6264 35.0691 30.2256 35.0742C31.3355 35.06 31.7272 34.9874 30.4952 34.9893C30.8865 34.9904 30.8435 34.949 30.96 34.9482C31.0328 34.9478 31.6015 34.9888 31.3409 34.8975C31.3074 34.8861 30.9633 34.9003 31.0713 34.877C31.8939 34.8829 31.1001 34.8627 31.0879 34.8594C31.0993 34.8056 33.123 34.8499 33.4717 34.8438C33.8753 34.8366 34.2342 34.7941 34.3223 34.7939C34.6111 34.7939 34.372 34.8153 34.4366 34.8232C34.5043 34.8309 35.3234 34.7897 35.3643 34.792C35.5223 34.8011 35.3629 34.8267 35.378 34.8281C35.575 34.8438 36.6786 34.8242 36.9874 34.8301C36.9778 34.8135 36.3577 34.8117 36.7442 34.7852C37.1893 34.7546 37.2204 34.8252 37.2325 34.8301C39.2977 34.8294 41.3635 34.8288 43.4288 34.8281C43.4018 34.7894 42.0522 34.8186 42.0215 34.8135C41.8446 34.7833 44.1228 34.7842 44.4024 34.7979C44.1899 34.7895 43.9772 34.7808 43.7647 34.7725C43.9366 34.7514 44.2071 34.7531 44.5 34.7588C44.9466 34.7605 45.4205 34.9037 45.7579 35.0723C45.9621 35.1726 45.5951 34.963 45.5831 34.9619C45.8373 35.044 46.1795 35.2968 45.9024 35.1465C46.4424 35.4845 46.3497 35.4639 46.6661 35.8301C46.6796 35.852 46.5734 35.6671 46.8047 35.9805C46.8577 36.055 47.0103 36.3032 47.1055 36.5713C47.2054 36.8373 47.2474 37.1133 47.2618 37.1777C47.2834 37.2329 47.2619 36.7204 47.1739 36.6787C47.0188 36.178 46.9289 36.1109 46.9219 36.1064C46.9104 36.109 46.94 36.1807 46.8321 36.0049C46.8148 35.9783 46.8349 35.99 46.7823 35.9023C46.7251 35.8205 46.6144 35.6101 46.1993 35.2891C46.2971 35.3238 46.5778 35.5509 46.7823 35.8438C46.9934 36.1324 47.1166 36.4722 47.1524 36.5693C47.2217 36.7741 47.1587 36.4354 46.9405 36.0586C46.731 35.675 46.3273 35.3182 46.1797 35.2471C46.3269 35.3065 46.0943 35.1458 45.7403 34.9688C45.3448 34.7907 45.5214 34.8547 45.2979 34.7793C44.713 34.6406 44.8928 34.7159 44.5 34.6738C44.479 34.6723 44.4558 34.6701 44.4297 34.668C44.4663 34.6773 44.489 34.6854 44.5 34.6914C44.5157 34.6975 44.5146 34.7018 44.5 34.7051C44.4175 34.7309 43.7277 34.6757 43.4932 34.6562C43.8288 34.6529 44.1645 34.6498 44.5 34.6465C44.7017 34.645 44.9052 34.6645 45.1045 34.7061C45.0673 34.693 45.03 34.6814 44.9922 34.6699C45.1703 34.7014 45.3457 34.7498 45.5147 34.8145C45.4859 34.8086 45.4575 34.8028 45.4288 34.7979C46.3121 35.1142 46.4038 35.4072 46.4678 35.4355C46.9966 35.9298 47.3591 36.727 47.3487 37.5C47.3486 37.6834 47.3487 37.8639 47.3487 38.0381C47.3487 38.1413 47.3793 38.071 47.3555 38.8242C47.3479 39.0637 47.3237 38.8374 47.3272 39.1094C47.3915 39.4498 47.34 39.4438 47.3399 39.5449C47.3399 39.8346 47.3562 40.0122 47.3565 40.04C47.359 40.3992 47.3561 40.9258 47.3584 41.3203C47.3593 41.3212 47.3788 41.1263 47.3731 41.3779C47.371 41.4679 47.286 42.2758 47.3135 42.9814C47.3192 42.798 47.3254 42.6141 47.3311 42.4307C47.3232 42.6468 47.3447 44.1576 47.3672 43.7891C47.381 43.5624 47.3266 43.0089 47.379 42.9482C47.3705 43.221 47.3734 44.1611 47.376 45C47.3873 45.8695 47.1077 46.6189 47.0596 46.7256C47.0466 46.7571 47.1061 46.5427 47.087 46.5889C47.0866 46.6304 46.7758 47.3399 46.7041 47.418C46.673 47.4682 46.8256 47.1681 46.8067 47.1865C46.8102 47.2195 46.2847 48.0185 46.2471 48.0605C46.3999 47.88 46.7562 47.3195 46.586 47.624C46.5647 47.6639 46.4213 47.8471 46.3897 47.8916C46.2444 48.0989 46.412 47.9105 46.6006 47.6211C46.7924 47.3338 46.9723 46.9327 47.0137 46.8223C46.7152 47.7405 45.6837 48.8938 44.6749 49.3691C44.27 49.5558 45.2445 49.034 44.794 49.2598C43.8422 49.6782 44.5547 49.4046 44.5284 49.4219C44.4003 49.5065 44.0636 49.5889 43.7979 49.6543C44.1193 49.5608 44.9026 49.2122 44.5557 49.3467C44.5326 49.3578 44.2141 49.5029 43.9424 49.5869C43.672 49.6733 43.4569 49.7198 43.6856 49.6777C43.7021 49.6788 43.7296 49.6724 43.7657 49.6631C43.5779 49.7094 43.4337 49.7461 43.4385 49.7686C43.0627 49.8199 43.1838 49.8065 42.6534 49.8467C42.7231 49.8495 42.7938 49.8508 42.8643 49.8506C42.76 49.8658 42.6355 49.8745 42.5 49.874C41.9821 49.872 41.2923 49.7979 41.3536 49.791C41.5621 49.7693 42.1015 49.8036 42.1475 49.8027C42.1888 49.8019 42.2741 49.7744 42.5 49.7676C42.6761 49.7623 42.9217 49.7614 43.2745 49.7314C43.5263 49.6601 42.6969 49.7776 42.5 49.7461C42.4583 49.7434 42.4506 49.7398 42.5 49.7354C42.5334 49.7328 42.5886 49.7299 42.67 49.7236C42.6247 49.7257 42.5674 49.7276 42.5 49.7275C41.8817 49.7271 40.2855 49.6998 40.0372 49.7197C40.0049 49.7226 40.1549 49.7712 39.6905 49.7461C39.4704 49.7341 40.0013 49.7339 39.9004 49.7227C39.5864 49.6882 35.3681 49.7101 34.5665 49.7119C34.5145 49.712 34.5335 49.6971 34.4825 49.6973C34.3254 49.6977 33.7531 49.7199 33.4717 49.7129C34.0534 49.7412 32.923 49.7434 32.6348 49.7402C32.1981 49.7355 32.2246 49.7089 32.0362 49.7031C31.3088 49.681 30.1815 49.7454 29.6163 49.6855C29.6417 49.7441 28.6373 49.6558 28.1797 49.6553C27.8204 49.6549 27.2992 49.6948 27.7842 49.7188C27.1639 49.716 26.5106 49.7269 25.9288 49.7305C25.8331 49.731 25.9648 49.7133 25.8008 49.7148C25.786 49.7154 25.7647 49.7326 25.625 49.7344C24.4618 49.7494 25.0273 49.7129 24.8096 49.7021C24.688 49.6961 24.5982 49.6924 24.5323 49.6914C25.21 49.688 25.9916 49.6821 26.2012 49.6816C26.022 49.6437 24.6983 49.6889 24.3106 49.6787C24.2978 49.6781 24.3437 49.6574 24.3301 49.6572L23.7637 49.6621C23.5378 49.667 23.3539 49.675 23.4493 49.6875C23.5008 49.6942 23.9266 49.6947 24.4317 49.6924C24.2952 49.6971 24.3971 49.7207 24.3731 49.7217C24.0804 49.7333 23.3628 49.7101 23.1084 49.707C23.0507 49.7064 23.0545 49.7216 23.045 49.7217C22.8142 49.7182 22.9088 49.6755 22.6719 49.7197C22.2533 49.6662 23.4546 49.7114 23.3721 49.6768C23.322 49.6562 21.7304 49.6597 21 49.6816C20.7441 49.6879 20.5776 49.6771 20.5772 49.6875C20.5661 49.6819 20.5238 49.6728 20.4375 49.6562C20.2403 49.6411 19.3954 49.4228 19.2588 49.3535C19.2348 49.3456 19.2287 49.3875 19.1993 49.376C19.1124 49.3697 18.1825 48.8285 17.8868 48.5527C18.0457 48.6998 18.2153 48.8365 18.3936 48.9609C17.8503 48.5929 17.6709 48.3719 17.6221 48.3379C17.5781 48.2986 17.6832 48.42 17.8438 48.5703C17.8601 48.5849 17.8749 48.6005 17.8907 48.6143C18.14 48.848 18.5087 49.0892 18.5137 49.0938C18.5047 49.0968 18.0319 48.8139 17.6778 48.4619C17.311 48.1111 17.0635 47.7252 17.2051 47.8896C17.2259 47.9511 17.9373 48.7047 17.5967 48.3203C17.5278 48.2604 17.1057 47.7524 17.0957 47.7139C17.0387 47.6114 17.214 47.8606 17.4268 48.085C17.637 48.3121 17.8828 48.5094 17.8272 48.4404C17.5525 48.2265 17.2675 47.8771 17.0479 47.5449C16.9484 47.3947 16.9108 47.3639 16.8985 47.3447C16.7316 47.0524 16.8414 47.2071 16.7891 47.1084C16.7512 47.0613 16.4646 46.459 16.5723 46.5537C16.2296 45.5205 16.3052 45.3441 16.3116 45.6387C16.3373 45.9258 16.4987 46.6538 16.8301 47.2422C16.5906 46.886 16.3432 46.0773 16.3008 45.7041C16.2809 45.572 16.2673 45.6532 16.2403 45.4268C16.2309 45.3392 16.2194 45.1899 16.2198 45C16.2213 44.3099 16.2386 42.9945 16.2432 42.5967C16.2507 42.8973 16.2731 42.8092 16.2715 42.5771C16.2699 42.3457 16.2397 42.5401 16.2364 42.4951C16.233 42.4466 16.2472 41.3579 16.2432 41.1768C16.2543 41.9962 16.2769 41.8115 16.2793 41.1162C16.2859 41.2167 16.2923 41.3175 16.2989 41.418C16.2896 41.0103 16.3249 40.1529 16.3145 39.917C16.3128 39.8802 16.2941 40.0118 16.293 39.9922C16.2848 39.7855 16.3045 39.0816 16.2979 39.0488C16.2924 39.0236 16.2755 39.3209 16.2676 39.21C16.2661 39.1854 16.2926 38.8964 16.2862 38.6123C16.2838 38.5073 16.2657 38.5705 16.2647 38.5439C16.256 38.3223 16.2862 38.453 16.2813 38.0479C16.2776 37.7507 16.2479 37.5288 16.2579 37.1182C16.2197 38.4664 16.2353 37.3333 16.2237 36.7695C16.2218 36.6794 16.189 36.7563 16.2051 36.2168C16.2648 37.365 16.2367 35.8909 16.2373 35.5879C16.2376 35.5713 16.2595 35.5651 16.2598 35.417C16.2597 35.4047 16.2453 35.4222 16.2442 35.2852C16.2335 33.98 16.2502 34.8136 16.2647 34.5664C16.2709 34.4608 16.2496 33.8253 16.2491 33.6543C16.2491 33.6155 16.2643 33.6329 16.2637 33.4814C16.2626 33.2123 16.2465 32.9706 16.2452 32.793C16.2454 32.7727 16.2695 32.7694 16.2618 32.4355C16.2596 32.341 16.2501 32.2343 16.2432 32.3682C16.2204 32.814 16.2601 33.66 16.2373 34.1641C16.2166 34.6232 16.215 33.1776 16.2149 33.0996C16.2168 33.123 16.2264 33.3257 16.2286 33.0674C16.2305 32.8218 16.1892 32.3728 16.1983 32.0068C16.199 31.9789 16.2343 31.6867 16.2364 31.7002C16.2379 31.7158 16.2457 32.1607 16.2559 32.0957C16.257 32.0816 16.2572 31.8024 16.2647 31.7656C16.2741 31.7199 16.3649 31.5971 16.3672 31.5361C16.3729 31.3797 16.3521 31.481 16.3536 31.3799C16.3566 31.1625 16.383 30.412 16.3516 30.3867C16.3497 30.5109 16.3476 30.6355 16.3457 30.7598C16.3425 30.0683 16.3292 30.3625 16.3233 30.2646C16.3169 30.1592 16.3451 30.1887 16.3477 29.9561C16.3483 29.9053 16.3418 28.9295 16.3301 28.9473C16.3486 29.4866 16.3151 29.2866 16.3145 29.3115C16.3123 29.406 16.3315 29.5266 16.3311 29.6533C16.3281 30.5451 16.2979 29.6462 16.2901 29.8564C16.2875 29.9289 16.3036 30.0737 16.3028 30.1045C16.3 30.204 16.2786 30.2059 16.2803 30.2725C16.2844 30.4278 16.3149 30.2465 16.3165 30.2588C16.3354 30.3981 16.3114 30.9417 16.2784 30.6035C16.2665 30.8067 16.3071 30.8309 16.2911 30.9922C16.2593 31.3125 16.267 30.8328 16.2618 30.7021C16.2427 30.2349 16.2583 30.0959 16.253 29.4346C16.2511 29.1964 16.2316 28.9142 16.2305 28.8037C16.2299 28.7334 16.2975 28.0775 16.1915 28.0576C16.2017 27.8021 16.2718 27.4009 16.2686 27.1377C16.2657 26.9029 16.2284 26.976 16.2266 26.9551C16.2243 26.9213 16.227 26.6348 16.2217 26.5381C16.2154 26.4254 16.2012 26.4813 16.1954 26.3018C16.1809 25.8548 16.2192 25.8663 16.2217 25.8203C16.2505 25.2872 16.1959 25.5204 16.1915 25.4023C16.1874 25.2922 16.2082 23.747 16.1944 23.4219C16.2021 23.5542 16.2101 23.687 16.2178 23.8193C16.2417 23.5835 16.203 23.3335 16.2452 23.3271C16.1762 23.2782 16.2225 22.7904 16.2207 22.6436C16.22 22.5857 16.2086 22.59 16.2081 22.5176C16.206 22.2347 16.215 21.5968 16.209 21.4434C16.1832 20.7802 16.1403 22.4768 16.1377 22.6104C16.1385 22.343 16.1232 20.8303 16.0899 21.5254C16.0847 21.6329 16.116 21.8234 16.1172 21.8838C16.1252 22.2915 16.0975 21.9725 16.0948 22.0029C16.0905 22.0574 16.1165 22.3265 16.1133 22.3975C16.1123 22.421 16.0875 22.2688 16.087 22.6582C16.0626 22.466 16.0829 21.3712 16.0772 21.2275C16.0751 21.1769 16.0227 21.4963 16.0733 20.5596C16.0684 20.5704 16.0635 20.5819 16.0586 20.5928C16.0579 20.3953 16.0574 20.1975 16.0567 20C16.0553 19.6004 16.102 19.1987 16.1973 18.8086C16.1904 18.88 16.135 19.2356 16.2315 18.792C16.2957 18.54 16.2231 18.7172 16.2276 18.6963C16.2482 18.5891 16.5557 17.4786 17.3819 16.623C18.1738 15.7338 19.3909 15.2822 19.7813 15.2031C20.0449 15.117 20.8084 15.0214 20.8682 15.0322C20.9036 15.0311 20.9482 15.0302 21 15.0303C21.3708 15.0309 22.1984 15.0416 22.378 15.0391C22.5024 15.0372 22.3842 15.0166 22.4952 15.0176ZM37.584 49.8145C37.8412 49.8148 37.5605 49.8469 37.4229 49.835C37.3719 49.8305 37.519 49.8144 37.584 49.8145ZM40.1221 49.7852C40.086 49.7897 40.0498 49.7943 40.0137 49.7988C41.348 49.8142 40.1042 49.8058 39.7774 49.8115C39.6539 49.8137 39.7573 49.8305 39.6456 49.833C38.756 49.8526 38.9656 49.7506 40.1221 49.7852ZM37.4747 49.7783C37.02 49.8083 36.4285 49.8033 37.2334 49.834C36.0561 49.8399 36.5461 49.811 36.4991 49.8086C36.4434 49.8059 36.265 49.8155 36.2276 49.8125C35.3712 49.7399 37.005 49.7877 37.4747 49.7783ZM39.044 49.8223C38.8561 49.8471 38.1586 49.8269 38.4874 49.8125C38.5384 49.8105 38.91 49.8247 39.044 49.8223ZM40.8887 49.7744C40.8449 49.7877 40.4501 49.7849 40.3106 49.7861C40.4035 49.7684 40.6932 49.773 40.8887 49.7744ZM36.3838 49.7285C36.4012 49.7437 35.3497 49.77 35.3096 49.7666C35.0362 49.742 36.1483 49.7127 36.3838 49.7285ZM36.9444 49.7393C37.049 49.7339 37.2922 49.751 37.2071 49.7617C37.0969 49.7754 36.9173 49.7408 36.9444 49.7393ZM29.8282 49.751C29.7286 49.7619 29.1733 49.7655 29.0733 49.751C29.3052 49.7442 29.5855 49.7515 29.8282 49.751ZM30.4141 49.7324C30.3848 49.7445 29.9072 49.7456 29.8467 49.7334C29.9866 49.726 30.2408 49.7333 30.4141 49.7324ZM21 49.7314C20.2115 49.8052 18.3744 49.1475 20.2139 49.627C20.0936 49.6158 19.9723 49.5997 19.8526 49.5791C20.1687 49.6701 20.574 49.706 20.5811 49.6904C20.5877 49.6933 20.6032 49.6967 20.629 49.7012C20.6483 49.7048 20.8384 49.7157 21 49.7148C21.0514 49.7149 21.0995 49.7154 21.1348 49.7168C21.3363 49.7246 21.2295 49.7292 21 49.7314ZM18.6123 49.1445C18.5787 49.1059 19.2045 49.4418 19.337 49.4775C19.2806 49.4837 18.6291 49.1914 18.6123 49.1445ZM45.7696 48.582C45.6577 48.6871 45.355 48.9208 45.3233 48.9531C45.2919 49.0005 45.7356 48.6485 45.7696 48.582ZM20.4307 48.1523C20.3851 48.1533 20.6937 48.2257 20.7872 48.2197C20.9954 48.2164 20.5186 48.1644 20.4307 48.1523ZM36.6827 48.1904C36.3626 48.1651 36.3822 48.2116 36.6172 48.2109C36.6998 48.2106 36.6927 48.1912 36.6827 48.1904ZM24.46 48.1963C24.4279 48.1946 24.0578 48.1981 24.0713 48.209C24.2086 48.2155 24.6664 48.2076 24.46 48.1963ZM34.6026 48.1865C34.4366 48.1897 34.0073 48.1838 33.9317 48.1973C34.1344 48.1945 34.6571 48.2135 34.6026 48.1865ZM37.8516 48.1533C37.7194 48.1512 37.6179 48.1866 37.6319 48.1885C37.7759 48.2042 37.9836 48.167 37.8516 48.1533ZM27.8799 48.1826C27.8722 48.1676 27.4471 48.1739 27.504 48.1836C27.5268 48.1868 27.8806 48.1943 27.8799 48.1826ZM41.5372 48.1621C41.5521 48.1401 40.892 48.1525 41.1534 48.1709C41.2196 48.1755 41.5302 48.1696 41.5372 48.1621ZM46.2686 47.8848C46.321 47.8522 46.9621 46.8748 46.3643 47.7188C46.3422 47.7691 45.8845 48.3351 46.0938 48.1191C46.24 47.9678 46.2382 47.9232 46.2686 47.8848ZM19.3155 47.5869C19.3189 47.5896 19.3225 47.5915 19.3252 47.5938C19.273 47.5763 20.1105 47.9701 19.9395 47.8584C20.1955 47.9332 19.8914 47.8818 20.087 47.9326C20.1553 47.9454 20.2256 47.9312 20.5733 48.0117C20.6756 48.0327 20.5584 48.0295 20.5752 48.0361C20.5808 48.0415 20.9088 48.0973 20.6338 48.0742C20.2182 48.0177 20.5992 48.0357 20.3819 47.9961C20.3541 47.998 19.9427 47.9063 19.9649 47.9141C19.9692 47.9167 20.0902 47.9504 20.1094 47.958C20.1812 47.9886 20.1429 47.9933 20.1514 47.9971C20.1839 48.0265 20.852 48.1072 20.9522 48.1123C20.9684 48.116 20.6957 48.1231 20.42 48.0742C20.1446 48.0303 19.8732 47.9279 19.8526 47.917C19.828 47.9046 19.8543 47.869 19.8301 47.8545C19.8134 47.8534 19.4122 47.6704 19.3692 47.6289C19.3556 47.6191 19.3453 47.6114 19.3379 47.6055C19.385 47.6568 19.0554 47.4248 19.0782 47.416C19.088 47.42 19.3038 47.5813 19.3155 47.5869ZM21.4776 48.0439C21.4415 48.0485 21.4053 48.0531 21.3692 48.0576C21.9827 48.0465 22.6907 48.0685 23.3975 48.0684C23.5768 48.0684 23.3708 48.0403 23.6055 48.0479C23.7937 48.054 24.0021 48.0792 23.9004 48.085C23.8754 48.0864 23.4918 48.0696 23.2998 48.0713C22.7332 48.0764 22.8759 48.1009 22.8428 48.1016C22.8041 48.1021 22.449 48.0852 22.2549 48.0859C21.7979 48.0877 21.5726 48.1008 21 48.0869C20.9684 48.0859 20.9355 48.0844 20.9014 48.082C20.9418 48.0812 20.974 48.0788 21 48.0762C21.2137 48.0592 21.1059 48.0352 21.4776 48.0439ZM29.7832 48.0742C30.0086 48.1004 28.8893 48.0854 29.4092 48.0684C29.4325 48.0676 29.7697 48.0729 29.7832 48.0742ZM38.7071 48.0498C38.757 48.0776 38.1517 48.057 37.9415 48.0605C37.8917 48.0327 38.4967 48.0533 38.7071 48.0498ZM34.1231 48.04C36.6733 48.0181 36.1109 48.0767 33.9707 48.0527C33.9677 48.0354 33.9634 48.0414 34.1231 48.04ZM37.3887 48.043C37.2959 48.0608 37.0062 48.0551 36.8106 48.0537C36.8458 48.0413 37.2475 48.0462 37.3887 48.043ZM30.3877 48.0342C30.6239 48.0583 29.6865 48.038 29.6231 48.0439C29.5638 48.0169 30.3266 48.0282 30.3877 48.0342ZM42.3282 48.0264C42.2157 48.0445 41.7712 48.0365 41.5616 48.0361C41.6968 48.0149 42.0811 48.0261 42.3282 48.0264ZM40.1534 48.0215C40.4357 48.0422 39.4615 48.037 39.7784 48.0195C39.7963 48.0187 40.1343 48.0205 40.1534 48.0215ZM19.1915 47.6328C19.514 47.8342 19.1608 47.5942 19.5938 47.8555C19.4234 47.7462 19.1427 47.5556 19.1915 47.6328ZM16.8877 47.4141C16.8941 47.4318 17.1166 47.7759 17.1309 47.79C17.299 48.0842 16.6704 47.1042 16.8877 47.4141ZM44.2569 47.543C44.2526 47.5683 43.9818 47.7235 43.8799 47.7715C43.8907 47.753 44.1674 47.6133 44.2569 47.543ZM47.2422 45.9668C47.337 45.5076 47.3345 45.1095 47.3125 45.3232C47.3093 45.357 47.2719 45.8152 47.1553 46.2363C47.0463 46.6585 46.869 47.0347 46.9063 46.9961C46.9382 46.9285 47.1552 46.4293 47.2422 45.9668ZM47.1309 46.5049C47.1851 46.3815 47.242 46.0628 47.1778 46.249C47.1315 46.4133 47.1193 46.531 47.1309 46.5049ZM18.168 46.3906C18.0589 46.1772 17.9099 45.954 18.0293 46.2363C18.0418 46.2674 18.1703 46.4201 18.168 46.3906ZM47.254 42.4863C47.245 43.1291 47.2428 44.1967 47.2422 45C47.2421 45.1869 47.2308 45.3613 47.2139 45.5166C47.1845 45.7596 47.2119 45.6432 47.1973 45.748C47.1831 45.8303 47.1797 45.7296 47.1338 46.0049C47.1118 46.1359 47.2181 45.7403 47.2051 45.8301C47.2005 45.8893 47.1274 46.1797 47.1075 46.2734C47.1056 46.2972 47.2048 46.0088 47.2178 45.9209C47.2392 45.7978 47.1977 45.9133 47.2207 45.7783C47.2646 45.5078 47.2889 45.2531 47.293 45C47.2956 44.8611 47.298 44.7231 47.2979 44.582C47.2978 44.5499 47.284 44.7987 47.2842 44.5244C47.2843 44.4813 47.3049 44.2269 47.3018 43.8994C47.237 43.1747 47.3008 42.6423 47.2774 41.7227C47.2713 41.7574 47.2546 42.4458 47.254 42.4863ZM45.6651 45C45.6632 44.8527 45.6573 44.7917 45.6475 44.9375C45.6472 44.9434 45.6472 44.9658 45.6465 45C45.6541 45.1646 45.5739 45.6539 45.5616 45.6797C45.5267 45.9263 45.6896 45.2841 45.6651 45ZM17.8575 45C17.8563 45.1999 17.8988 45.4678 17.9043 45.4814C17.9384 45.5815 17.8822 45.2372 17.877 45C17.8726 44.8776 17.866 44.7799 17.8575 44.7559C17.8562 44.795 17.8566 44.8885 17.8575 45ZM47.3194 45C47.3179 45.0196 47.3175 45.0483 47.3165 45.0869C47.3267 45.1396 47.3352 45.4863 47.3487 45.1865C47.3507 45.1247 47.3453 45.0453 47.3379 45C47.3312 44.9657 47.3235 44.9549 47.3194 45ZM47.3301 44.251C47.3249 44.3407 47.328 44.5777 47.3262 44.7031C47.3525 44.3038 47.3271 44.7452 47.3545 44.7295C47.3555 44.4603 47.3574 43.7906 47.3301 44.251ZM45.6895 43.8418C45.6844 44.0019 45.6866 44.6847 45.7012 44.4189C45.7035 44.3764 45.7032 43.8538 45.6895 43.8418ZM16.2852 43.9521C16.2792 44.0884 16.2858 44.5434 16.2979 44.3428C16.3031 44.256 16.2975 43.9806 16.2852 43.9521ZM47.3174 44.2217C47.3333 44.2473 47.3248 43.7827 47.3096 43.7412C47.3094 43.8344 47.3129 44.2108 47.3174 44.2217ZM16.2764 42.998C16.2665 43.2461 16.2801 43.7017 16.295 43.4873C16.2981 43.4406 16.2858 43.0159 16.2764 42.998ZM45.5821 37.1025C45.6238 37.2323 45.6442 37.3646 45.6446 37.5C45.6452 37.9772 45.6545 38.4485 45.6582 38.9336C45.6166 38.7225 45.6907 39.9951 45.6426 39.251C45.6531 39.595 45.6615 42.5579 45.6524 42.8096C45.6493 42.8863 45.5747 42.8487 45.6036 42.5303C45.6073 42.4884 45.6264 42.6836 45.6309 42.6494C45.6336 42.6223 45.6444 41.9361 45.6426 41.9043C45.6406 41.8703 45.6171 41.9102 45.6143 41.876C45.6113 41.8367 45.6316 41.4102 45.6319 41.1865C45.6323 40.7653 45.6124 40.7191 45.6124 40.6846C45.6122 40.5839 45.627 40.4147 45.627 40.2109C45.6269 39.4311 45.6171 38.3381 45.6309 37.5C45.6354 37.3467 45.6114 37.2117 45.5821 37.1025ZM47.379 41.627C47.3955 42.9708 47.3218 43.1453 47.3506 41.916C47.3512 41.892 47.3715 41.5462 47.379 41.627ZM16.334 41.1016C16.3284 41.2299 16.3101 41.2667 16.3145 41.3262C16.316 41.3465 16.3333 41.3504 16.3379 41.4199C16.3366 41.3139 16.3354 41.2076 16.334 41.1016ZM16.2168 40.5752C16.22 40.7727 16.2284 40.972 16.2081 41.0391C16.2112 40.9128 16.2026 40.5537 16.2168 40.5752ZM47.2471 40.7012C47.2417 40.919 47.2669 40.8738 47.2676 40.8604C47.2758 40.6964 47.2532 40.4546 47.2471 40.7012ZM16.25 38.5205C16.2663 38.6445 16.2527 39.4599 16.2364 39.6436C16.2126 39.4663 16.2297 38.369 16.25 38.5205ZM47.2422 37.5215C47.2293 37.4389 47.2256 37.8608 47.2325 37.9854C47.2483 38.0237 47.244 37.533 47.2422 37.5215ZM47.2862 37.5C47.2848 37.6402 47.2817 37.8259 47.2872 37.8477C47.294 37.8724 47.2991 37.6486 47.2959 37.5C47.2946 37.407 47.2872 37.3359 47.2813 37.3262C47.2841 37.3666 47.2867 37.4288 47.2862 37.5ZM16.3145 37.1611C16.301 37.1551 16.2963 37.6903 16.2979 37.7119C16.3215 38.0219 16.3153 37.3847 16.3145 37.1611ZM16.2725 36.9316C16.2677 37.0115 16.2662 37.5742 16.2842 37.417C16.3021 37.2593 16.2796 36.8178 16.2725 36.9316ZM44.5 34.8008C44.3417 34.8139 44.2248 34.8299 44.2803 34.833C44.3279 34.8357 44.4088 34.8354 44.5 34.833C44.7554 34.8234 45.0724 34.8702 45.1661 34.8838C45.19 34.894 45.2563 34.9147 45.3741 34.9609C45.4628 34.9376 46.6944 35.5933 46.9727 36.4707C47.138 36.8652 47.1608 37.1888 47.168 37.1982C47.1539 37.1996 47.2221 36.8337 46.8047 36.083C46.7441 35.9943 46.8265 36.1129 46.5606 35.7676C46.5423 35.7457 46.5442 35.7243 46.4844 35.6582C46.4163 35.5813 46.1853 35.3473 45.9024 35.1787C45.6231 35.0045 45.3029 34.9047 45.1944 34.8838C45.1932 34.8808 45.1794 34.8747 45.1504 34.8652C45.0175 34.819 44.7255 34.7835 44.5 34.8008ZM16.3262 36.3203C16.317 36.4655 16.3151 37.199 16.3311 36.8906C16.3324 36.8634 16.3383 36.3159 16.3262 36.3203ZM43.462 36.3184C43.6559 36.3321 43.0615 36.346 42.8848 36.3301C42.7991 36.307 43.4373 36.3168 43.462 36.3184ZM38.75 36.293C38.7779 36.3181 38.0675 36.306 37.8829 36.3105C38.0418 36.2912 38.4916 36.2963 38.75 36.293ZM16.2784 35.9902C16.2678 36.0909 16.2896 36.3704 16.3057 36.2041C16.3084 36.1057 16.28 35.9804 16.2784 35.9902ZM32.0879 36.2285C32.1337 36.2259 33.2267 36.2154 33.0186 36.2441C32.8762 36.2638 31.8038 36.2447 32.0879 36.2285ZM40.709 36.2246C40.326 36.183 39.1722 36.2627 39.9278 36.249C39.9425 36.2487 39.7968 36.2255 40.0889 36.2285C40.1133 36.2288 40.1589 36.2548 40.5264 36.2451C40.6001 36.2431 40.7141 36.2261 40.709 36.2246ZM33.3311 36.2139C33.3904 36.2251 33.2473 36.258 33.1182 36.2412C33.0634 36.2339 33.1664 36.2143 33.3311 36.2139ZM42.2305 36.2188C41.868 36.2389 43.0048 36.2424 43.0645 36.2373C43.0267 36.2248 42.2678 36.2168 42.2305 36.2188ZM36.7549 36.1992C36.8122 36.1975 37.0553 36.2145 37.2217 36.2061C37.0321 36.2445 36.1561 36.2184 36.7549 36.1992ZM40.9161 36.2041C40.8259 36.1993 39.9166 36.1956 40.251 36.208C40.2805 36.2091 40.9049 36.2163 40.9161 36.2041ZM33.3516 36.1924C33.2531 36.2051 32.1531 36.2104 32.1075 36.207C31.7761 36.1819 33.266 36.188 33.3516 36.1924ZM38.9151 36.1934C38.948 36.1959 38.9075 36.207 38.9581 36.207C41.0797 36.2043 39.8114 36.1812 38.9151 36.1934ZM32.6329 36.1523C32.9857 36.161 33.7651 36.1327 33.4434 36.1768C33.2822 36.1989 33.177 36.1723 33.1563 36.1719C32.9564 36.1685 32.542 36.1737 32.6329 36.1523ZM35.7569 36.1553C35.9156 36.1547 35.7969 36.1706 35.8946 36.1709C35.9566 36.171 37.2449 36.1515 37.0596 36.1768C36.9276 36.1947 35.1643 36.1787 34.8809 36.1787C35.1344 36.1456 35.3392 36.1706 35.6797 36.1689C35.7713 36.1684 35.747 36.1553 35.7569 36.1553ZM37.2852 36.1494C37.2621 36.1511 37.2459 36.1692 37.2569 36.1699C37.3487 36.1744 39.1067 36.1633 39.3536 36.1562C39.1121 36.1449 37.3702 36.1439 37.2852 36.1494ZM33.3174 36.0264C33.0045 36.0473 31.5864 36.0341 31.5079 36.0381C31.4506 36.0414 31.8813 36.0808 31.2051 36.0586C31.6985 36.1187 32.3669 36.0494 32.4415 36.0508C32.5145 36.0523 32.4004 36.0784 32.417 36.0791C32.4581 36.0806 33.231 36.078 33.2706 36.0762C33.2975 36.0747 33.1569 36.038 33.3174 36.0264ZM34.6084 36.0625C34.3424 36.0402 33.7959 36.0651 33.9366 36.0732C33.9987 36.0767 34.5585 36.0796 34.6084 36.0625ZM40.1895 36.0703C40.335 36.0681 40.7344 36.0812 40.7598 36.0664C40.6134 36.0686 40.2124 36.0552 40.1895 36.0703ZM35.7256 35.9824C37.3232 35.9907 34.6704 35.9117 35.7852 36.0186C34.8674 35.9798 35.4835 36.0313 35.3428 36.0449C35.1911 36.0594 34.6709 36.0442 34.6973 36.0703C35.0151 36.0685 35.3346 36.0663 35.6524 36.0645C35.3413 36.008 35.9907 36.0253 36.211 36.0713C36.3014 36.0598 36.392 36.0476 36.4825 36.0361C36.6318 36.1063 36.6908 35.9955 36.9844 36.0537C37.374 35.9693 35.9039 36.0538 35.7256 35.9824ZM33.1084 36.0469C33.4007 36.0597 32.65 36.0604 32.625 36.0586C32.4314 36.0431 32.9766 36.0412 33.1084 36.0469ZM37.1329 35.9971C37.1211 35.9987 37.1875 36.0244 37.2022 36.0254C37.5236 36.0468 37.3711 35.9793 37.1329 35.9971ZM33.4092 35.9268C33.2085 35.9557 32.3553 35.9554 31.8623 35.9609C32.2955 35.9731 32.9983 35.9943 33.4258 36.002C33.5479 36.0042 33.6665 35.9917 33.7706 35.9932C33.9374 35.9956 33.7894 36.014 33.8008 36.0146C34.019 36.0248 34.3007 35.983 33.835 35.9785C33.9986 35.9722 34.1626 35.9663 34.3262 35.96C33.716 35.9368 33.7602 35.9946 33.585 35.9922C33.3404 35.9888 33.3601 35.9416 33.4092 35.9268ZM32.4082 35.9854C32.16 35.9852 31.7758 35.9748 31.6407 35.9961C31.8889 35.9962 32.273 36.0066 32.4082 35.9854ZM35.3614 35.9658C35.2689 35.9586 34.2882 35.9669 34.6836 35.9834C34.7179 35.9846 35.4056 35.9771 35.3614 35.9658ZM38.2022 35.916C38.1294 35.9157 38.1067 35.948 38.1221 35.9512C38.2744 35.9748 38.4486 35.9176 38.2022 35.916ZM36.837 35.9092C36.8266 35.9099 36.8084 35.9283 36.8165 35.9297C37.0487 35.9501 37.1046 35.8915 36.837 35.9092ZM33.584 35.8408C33.4302 35.8257 32.9054 35.8627 32.7979 35.8721C33.5848 35.8577 33.2885 35.8987 33.4288 35.9121C33.7265 35.9405 33.6213 35.8447 33.584 35.8408ZM36.4805 35.8848C36.6293 35.8882 37.0696 35.8968 37.1446 35.8818C36.9825 35.8845 36.5447 35.8695 36.4805 35.8848ZM16.2989 34.874C16.2971 34.8869 16.2864 35.1992 16.2998 35.251C16.3181 35.1241 16.3173 34.768 16.2989 34.874ZM30.4141 34.9746C30.6951 34.9916 30.0517 34.9982 30.0196 34.9941C29.9381 34.9802 30.2877 34.967 30.4141 34.9746ZM44.5 34.7266C44.7956 34.7197 45.19 34.8197 45.2139 34.8369C44.9728 34.773 44.733 34.7421 44.5 34.7383C44.4256 34.7366 44.3521 34.7346 44.2793 34.7324C44.2973 34.7277 44.3878 34.7259 44.5 34.7266ZM44.2002 34.8145C44.1145 34.7891 43.694 34.8138 43.8145 34.8232C43.8286 34.8243 44.2588 34.8318 44.2002 34.8145ZM33.5088 34.8037C33.5143 34.8296 32.7385 34.8143 32.5479 34.8203C32.7507 34.8007 33.2133 34.8005 33.5088 34.8037ZM35.879 34.8027C35.9939 34.8053 36.3395 34.8071 36.336 34.8193C36.1647 34.8193 35.9238 34.8194 35.879 34.8027ZM39.586 34.7861C39.7476 34.7903 39.558 34.826 39.3799 34.8066C39.3241 34.8005 39.4955 34.7839 39.586 34.7861ZM37.877 34.791C37.4193 34.7971 37.8435 34.8169 37.3868 34.8105C37.4964 34.789 37.568 34.7857 37.877 34.791ZM43.2471 34.7197C43.3188 34.7255 43.0377 34.7453 43.5254 34.7549C43.1611 34.7533 43.2373 34.7939 43.0059 34.7754C42.9677 34.7717 42.848 34.688 43.2471 34.7197ZM42.5137 34.6943C42.7513 34.7074 42.196 34.7118 42.0313 34.7061C42.0296 34.6937 42.4766 34.6925 42.5137 34.6943ZM40.1788 34.6602C40.6254 34.635 40.335 34.6805 40.3487 34.6826C40.3822 34.6859 40.696 34.6651 40.625 34.6875H40.627C40.2185 34.7236 40.1445 34.6626 40.1788 34.6602ZM36.5186 34.6572C36.6282 34.6401 37.8346 34.6575 37.9034 34.6621C38.261 34.6866 36.6176 34.6732 36.5704 34.6689C36.5456 34.6667 36.5288 34.6649 36.5196 34.6631C36.458 34.6708 36.1492 34.672 36.1133 34.6523C36.2065 34.654 36.4608 34.6521 36.4903 34.6543C36.5028 34.6552 36.5121 34.6564 36.5186 34.6572ZM35.5547 34.6426C35.9665 34.66 34.893 34.6781 34.8624 34.6748C34.8464 34.6698 35.3364 34.6334 35.5547 34.6426ZM38.086 34.6699C37.8037 34.6492 38.7779 34.6544 38.461 34.6719C38.4395 34.6726 38.1005 34.6709 38.086 34.6699ZM16.2217 34.3281C16.2224 34.3386 16.2215 34.6005 16.2207 34.6104C16.2004 34.8422 16.2041 34.0607 16.2217 34.3281ZM16.3936 31.8359C16.3199 32.3985 16.3772 32.3399 16.377 32.3887C16.3762 32.4944 16.3561 32.7403 16.3594 32.9395C16.3511 32.7113 16.3423 32.483 16.334 32.2549C16.3287 32.4345 16.3019 33.9895 16.3135 34.0332C16.3305 34.0802 16.3257 33.5876 16.3272 33.5732C16.3298 33.5521 16.3759 33.4762 16.378 33.4307C16.3809 33.3555 16.3818 32.0458 16.3936 31.8359ZM16.3272 30.8281C16.3491 30.6688 16.3414 31.3833 16.3389 31.4062C16.3241 31.5278 16.3094 30.9586 16.3272 30.8281ZM16.1338 30.7412C16.1403 30.6571 16.1519 31.0922 16.1456 31.2246C16.1321 31.2135 16.1297 30.7975 16.1338 30.7412ZM16.1133 30.5322C16.1312 30.6238 16.1251 30.9142 16.1241 31.1104C16.1062 31.0182 16.1123 30.728 16.1133 30.5322ZM16.1983 28.1484C16.2271 28.0816 16.1992 28.6631 16.2022 28.8047C16.203 28.8294 16.2275 28.846 16.2295 28.9834C16.2303 29.035 16.2094 29.1038 16.209 29.1221C16.2087 29.1642 16.2166 30.1121 16.1895 29.75C16.185 29.6887 16.1956 28.3257 16.1983 28.1484ZM16.1631 27.9277C16.1639 27.9143 16.189 27.8694 16.1836 28.0869C16.1775 28.3333 16.155 28.0916 16.1631 27.9277ZM16.1211 26.2783C16.1226 26.2488 16.101 25.696 16.1407 25.9141C16.152 25.9782 16.1463 26.3816 16.1416 26.4736C16.1404 26.4882 16.1101 26.4215 16.1123 26.6025C16.1142 26.7487 16.1456 26.5304 16.1407 26.8154C16.136 27.0868 16.1159 26.7605 16.1123 26.7432C16.1103 26.7769 16.1233 27.2228 16.1055 27.209C16.0927 27.1921 16.1014 26.7211 16.0987 26.6035C16.0951 26.4523 16.0735 26.6354 16.0782 26.3828C16.0811 26.224 16.1192 26.3118 16.1211 26.2783ZM17.9444 25.2324C17.9323 25.2296 17.9247 25.7489 17.9454 25.8008C17.9445 25.6973 17.9519 25.2385 17.9444 25.2324ZM16.2432 25.0186C16.242 25.0694 16.2322 25.9095 16.254 25.7383C16.2611 25.6764 16.2653 24.1488 16.2432 25.0186ZM16.2852 25.2012C16.279 25.2842 16.2931 25.8942 16.3047 25.6914C16.3149 25.5146 16.2953 25.0662 16.2852 25.2012ZM16.3731 24.9971C16.3844 25.0333 16.3788 24.8694 16.3838 24.7568C16.3895 24.6289 16.398 24.29 16.378 24.0557C16.3763 24.3695 16.3748 24.6833 16.3731 24.9971ZM16.1338 24.0176C16.1551 24.1507 16.14 24.5604 16.1368 24.7764C16.1193 24.6444 16.1272 24.2084 16.1338 24.0176ZM16.0821 23.4746C16.0894 23.6031 16.1166 23.6065 16.1133 23.7598C16.1036 24.2163 16.0906 23.8806 16.0821 23.4746ZM16.2373 23.5449C16.232 23.6076 16.2381 23.9464 16.2491 23.9355C16.2668 23.9137 16.2458 23.4475 16.2373 23.5449ZM16.3623 23.6035C16.4052 23.2466 16.3508 23.4162 16.337 23.7324C16.3561 23.8274 16.3554 23.662 16.3623 23.6035ZM16.0762 22.7324C16.096 22.5892 16.0879 23.0116 16.0889 23.0283C16.0917 23.0485 16.1612 22.7701 16.1153 23.4307C16.1086 23.5277 16.0904 23.1814 16.0879 23.2158C16.0831 23.2879 16.0805 23.3448 16.0801 23.3906C16.0743 23.083 16.072 22.7633 16.0762 22.7324ZM16.3897 23.3076C16.4222 22.953 16.3615 22.8738 16.3614 23.1406C16.3613 23.2448 16.385 23.3582 16.3897 23.3076ZM16.3252 22.4922C16.3108 22.3887 16.3028 22.9114 16.3047 22.9453C16.3167 23.1376 16.3535 22.6951 16.3252 22.4922ZM16.3702 21.4932C16.3621 21.5487 16.3825 22.1379 16.3809 22.165C16.3785 22.2054 16.3535 22.0187 16.3584 22.332C16.3669 22.314 16.3909 22.493 16.3936 22.4609C16.4013 22.3616 16.3929 21.3373 16.3702 21.4932ZM16.3233 22.1104C16.3218 22.0827 16.287 22.2627 16.3008 22.373C16.3115 22.4585 16.3287 22.2149 16.3233 22.1104ZM16.1661 21.9639C16.1483 21.6961 16.2079 21.7512 16.1875 21.9834C16.1867 21.9923 16.167 21.9744 16.1661 21.9639ZM16.0928 20.1943C16.0762 20.2186 16.0923 20.887 16.085 21.0361C16.1156 21.1534 16.0875 20.5881 16.0948 20.4785C16.0975 20.4499 16.1651 20.9607 16.1143 20.21C16.1063 20.6122 16.0988 20.1881 16.0928 20.1943ZM16.0967 20C16.0946 19.7852 16.0725 19.8552 16.0655 20C16.063 20.0497 16.0631 20.1103 16.0684 20.168C16.07 20.1791 16.0978 20.0744 16.0977 20.0527C16.0976 20.0332 16.0971 20.0157 16.0967 20ZM16.1036 19.7773C16.1493 19.4678 16.184 18.8274 16.1104 19.3291C16.1 19.378 16.0974 19.7861 16.1036 19.7773ZM18.1075 18.9248C18.0972 18.9284 18.0141 19.1844 18.0147 19.1973C17.9943 19.2878 18.1203 18.9288 18.1075 18.9248ZM17.2784 16.7783C17.1169 16.9353 16.8978 17.2794 16.9932 17.1611C17.0106 17.1312 17.279 16.788 17.2784 16.7783ZM20.1788 17.0352C20.2585 16.9718 19.5883 17.2148 19.7715 17.1689C19.8102 17.1533 20.0919 17.0546 20.1788 17.0352ZM21 16.958C21.0204 16.9594 21.0287 16.9611 21.0206 16.9629C21.0145 16.9637 21.0076 16.9651 21 16.9658C20.8529 16.9719 20.3622 17.0179 20.4512 16.998C20.4697 16.9857 20.9037 16.9406 21 16.958ZM38.8897 16.998C38.6568 16.9777 39.4391 16.9824 39.1709 17C39.1596 17.0007 38.9047 16.9988 38.8897 16.998ZM37.5342 16.8252C37.5092 16.823 37.9083 16.7772 38.0206 16.8105C38.1068 16.8363 37.6059 16.8297 37.5342 16.8252ZM37.5254 16.7422C37.4573 16.6752 38.3347 16.7738 38.6377 16.7598C38.68 16.7578 38.3684 16.7366 38.4766 16.7305C38.7845 16.7133 39.6572 16.79 39.087 16.7979L38.7481 16.7959C38.4448 16.7913 38.6306 16.7751 38.6182 16.7744C37.969 16.7498 38.1399 16.7874 38.0391 16.792C37.8212 16.8017 37.8559 16.7563 37.4883 16.7754C38.0957 16.7471 37.543 16.7586 37.5254 16.7422ZM39.3155 16.6406C39.5576 16.6532 38.9959 16.6584 38.8321 16.6523C38.8282 16.6424 39.2949 16.6395 39.3155 16.6406ZM41.2344 16.5146C41.3242 16.4992 42.2996 16.4897 42.2774 16.5088C42.2559 16.5255 41.3896 16.5145 41.2344 16.5146ZM41.6905 16.4307C41.9257 16.4547 42.9451 16.4483 42.9952 16.4521C43.0226 16.4545 42.9535 16.5086 42.7627 16.501C42.1644 16.4768 42.599 16.4445 41.3477 16.4932C41.872 16.4588 41.378 16.4689 41.4786 16.4551C41.5609 16.4441 41.8698 16.4528 41.6905 16.4307ZM42.5577 16.3125C42.5703 16.3233 42.2032 16.3268 42.169 16.3252C41.9617 16.3139 42.4208 16.306 42.5577 16.3125ZM42.6006 16.2666C42.5868 16.2712 42.1715 16.2776 42.1211 16.2744C41.8525 16.2572 42.5281 16.2417 42.6006 16.2666ZM41.1905 16.2549C41.3978 16.2662 40.9387 16.2741 40.8018 16.2676C40.7886 16.2568 41.1574 16.2533 41.1905 16.2549ZM41.5147 16.0088C41.2825 16.0208 40.7734 16.0072 40.5625 16.0146C40.5394 16.016 40.6709 16.0729 40.3555 16.0342C40.142 16.008 41.3039 15.983 41.5147 16.0088ZM39.6817 15.8438C39.5471 15.8816 39.8148 15.8685 39.9004 15.876C39.9787 15.8828 40.03 15.9052 40.2022 15.8936C40.0287 15.877 39.8551 15.8603 39.6817 15.8438ZM37.334 15.3135C37.3003 15.3243 37.6249 15.3337 37.6973 15.3291C37.8096 15.3218 37.3896 15.2963 37.334 15.3135ZM33.712 15.2363C33.7875 15.259 34.1545 15.2407 34.3653 15.2461C34.3041 15.2282 33.8817 15.2339 33.712 15.2363ZM21 15.0693C20.6443 15.0451 19.7222 15.2111 19.7159 15.2412C19.7054 15.2357 20.6672 15.0542 21 15.0732C21.0436 15.0716 21.0738 15.0697 21.084 15.0674C21.0651 15.0682 21.036 15.069 21 15.0693ZM33.4629 15.1982C33.5595 15.2236 33.8987 15.2077 34.1153 15.209C34.0381 15.1863 33.6742 15.2039 33.4629 15.1982ZM35.1719 15.1934C35.0424 15.1756 34.5041 15.1971 34.5938 15.2041C34.6205 15.2061 35.24 15.2028 35.1719 15.1934ZM34.0538 15.1729C34.038 15.1711 33.5776 15.1733 33.5713 15.1846C33.7742 15.186 34.1775 15.1933 34.0538 15.1729ZM32.9024 15.0879C32.9019 15.1004 32.4438 15.1015 32.419 15.0996C32.2637 15.0877 32.7268 15.0723 32.9024 15.0879ZM23.9024 15.082C23.9525 15.09 23.9572 15.0953 23.9356 15.0977C23.9163 15.0948 23.9039 15.0894 23.9024 15.082ZM26.7364 15.0469C27.0365 15.0595 26.803 15.1109 26.5567 15.0898C26.5281 15.087 26.3313 15.0299 26.7364 15.0469ZM34.0225 15.0703C33.7777 15.0742 33.5329 15.0781 33.2881 15.082C33.4354 15.0589 33.8006 15.0762 34.0225 15.0703ZM27.8077 15.0674C27.7738 15.0832 27.4635 15.076 27.3311 15.0723C27.3347 15.0578 27.6778 15.0691 27.8077 15.0674ZM29.6055 15.0703C29.374 15.05 30.1556 15.0537 29.8877 15.0713C29.8751 15.072 29.6146 15.0711 29.6055 15.0703ZM33.8252 15.0137C33.9627 14.9869 34.5468 15.0064 34.2959 15.0156C34.2264 15.0182 33.9465 15.0126 33.8252 15.0137Z" fill="black"/>
</svg>
