<svg width="24" height="24" viewBox="0 0 24 24" fill="none" xmlns="http://www.w3.org/2000/svg">
<path d="M12 23.9555C11.6699 23.9555 11.3618 23.8674 11.0757 23.7134L8.14864 21.9748C7.70848 21.7327 7.92856 21.6447 8.0606 21.6006C8.65481 21.4026 8.76485 21.3586 9.38107 21.0064C9.44709 20.9624 9.53513 20.9844 9.60115 21.0284L11.8459 22.3709C11.934 22.4149 12.044 22.4149 12.11 22.3709L20.8911 17.2871C20.9792 17.2431 21.0232 17.1551 21.0232 17.045V6.89944C21.0232 6.7894 20.9792 6.70137 20.8911 6.65735L12.11 1.59556C12.022 1.55155 11.912 1.55155 11.8459 1.59556L3.06484 6.65735C2.97681 6.70137 2.93279 6.81141 2.93279 6.89944V17.045C2.93279 17.1331 2.97681 17.2431 3.06484 17.2871L5.46369 18.6736C6.76215 19.3338 7.57643 18.5636 7.57643 17.7933V7.77975C7.57643 7.6477 7.68647 7.51566 7.84053 7.51566H8.96292C9.09497 7.51566 9.22702 7.6257 9.22702 7.77975V17.7933C9.22702 19.5319 8.28068 20.5443 6.6301 20.5443C6.12392 20.5443 5.72778 20.5443 4.60538 19.9941L2.29457 18.6736C1.72236 18.3435 1.37024 17.7273 1.37024 17.067V6.92145C1.37024 6.26121 1.72236 5.645 2.29457 5.31488L11.0757 0.231082C11.6259 -0.0770272 12.3741 -0.0770272 12.9243 0.231082L21.7054 5.31488C22.2776 5.645 22.6298 6.26121 22.6298 6.92145V17.067C22.6298 17.7273 22.2776 18.3435 21.7054 18.6736L12.9243 23.7574C12.6382 23.8894 12.3081 23.9555 12 23.9555ZM14.707 16.979C10.8556 16.979 10.0633 15.2184 10.0633 13.7219C10.0633 13.5898 10.1734 13.4578 10.3274 13.4578H11.4718C11.6039 13.4578 11.7139 13.5458 11.7139 13.6778C11.89 14.8442 12.3961 15.4165 14.729 15.4165C16.5776 15.4165 17.3699 14.9983 17.3699 14.008C17.3699 13.4358 17.1498 13.0176 14.2668 12.7315C11.868 12.4894 10.3714 11.9612 10.3714 10.0466C10.3714 8.26392 11.868 7.20755 14.3768 7.20755C17.1938 7.20755 18.5803 8.17589 18.7564 10.2886C18.7564 10.3547 18.7344 10.4207 18.6904 10.4867C18.6463 10.5307 18.5803 10.5747 18.5143 10.5747H17.3699C17.2599 10.5747 17.1498 10.4867 17.1278 10.3767C16.8637 9.16624 16.1815 8.7701 14.3768 8.7701C12.3521 8.7701 12.11 9.47435 12.11 10.0025C12.11 10.6408 12.3961 10.8388 15.1251 11.191C17.8321 11.5431 19.1085 12.0493 19.1085 13.9419C19.0865 15.8786 17.5019 16.979 14.707 16.979Z" fill="#539E43"/>
</svg>
